<svg width="50" height="50" viewBox="0 0 50 50" fill="none" xmlns="http://www.w3.org/2000/svg">
<g clip-path="url(#clip0_202_970)">
<path d="M36.548 26.9438C35.9855 26.6917 35.3314 26.7896 34.8689 27.2021L26.2043 34.9167C25.8126 35.2646 25.6209 35.7854 25.6959 36.3063L27.0918 46.05C27.1751 46.6354 27.6189 47.0875 28.1793 47.275L28.6418 47.3479C29.073 47.3479 29.5084 47.1688 29.8147 46.8604C34.7501 41.9229 37.4689 35.3584 37.4689 28.3709C37.4709 27.7542 37.1105 27.1959 36.548 26.9438Z" fill="#2196F3"/>
<path d="M21.6312 12.5292C14.6437 12.5292 8.077 15.2479 3.14158 20.1833L3.06867 20.2542C2.64992 20.6729 2.50408 21.2917 2.69158 21.8521C2.87908 22.4146 3.36658 22.8208 3.952 22.9042L13.6958 24.3L13.9166 24.3167C14.3583 24.3167 14.7853 24.1292 15.0833 23.7938L22.7978 15.1292C23.2083 14.6688 23.3083 14.0125 23.0562 13.45C22.8041 12.8896 22.2458 12.5292 21.6312 12.5292Z" fill="#2196F3"/>
<path d="M24.7458 39.8979C24.3458 39.8979 23.9458 39.7438 23.6417 39.4396L10.5604 26.3584C9.97501 25.7729 9.94793 24.8313 10.5 24.2125L20.3042 13.2313C27.2479 5.10418 38.5208 -0.204149 48.4688 0.0083511C49.3021 0.0271011 49.975 0.700018 49.9938 1.53335C50.2229 11.425 44.9 22.7521 36.7459 29.7188L25.7896 39.5C25.4896 39.7667 25.1188 39.8979 24.7458 39.8979Z" fill="#ECEFF1"/>
<path d="M35.6937 19.5125C34.3583 19.5125 33.025 19.0042 32.0104 17.9896C29.9812 15.9583 29.9812 12.6542 32.0104 10.6229C34.0417 8.59167 37.3458 8.59167 39.3771 10.6229C41.4062 12.6542 41.4062 15.9583 39.3771 17.9896C38.3604 19.0063 37.0271 19.5125 35.6937 19.5125Z" fill="#2196F3"/>
<path d="M1.56247 50C1.15414 50 0.754141 49.8396 0.458307 49.5416C0.0520573 49.1354 -0.0979428 48.5396 0.0666406 47.9875C0.589557 46.2354 3.31664 37.3854 5.44581 35.2583C7.93122 32.775 12.2604 32.775 14.7416 35.2583C15.9833 36.5021 16.6666 38.15 16.6666 39.9083C16.6666 41.6646 15.9833 43.3146 14.7416 44.5562C12.6146 46.6833 3.76247 49.4104 2.01247 49.9354L1.56247 50Z" fill="#FF9800"/>
<path d="M20.9103 12.5375C14.1937 12.7187 7.90825 15.4166 3.1395 20.1833L3.06867 20.2541C2.64992 20.6729 2.50408 21.2916 2.69158 21.8521C2.87908 22.4146 3.36658 22.8208 3.952 22.9041L10.7916 23.8854L20.3041 13.2291C20.502 12.9979 20.7041 12.7666 20.9103 12.5375Z" fill="#1D83D4"/>
<path d="M47.8875 0C38.3708 0 27.7542 4.95625 20.9104 12.5375C20.7042 12.7667 20.5021 12.9958 20.3021 13.2292L10.7917 23.8854L10.5 24.2125C9.94793 24.8313 9.97501 25.7729 10.5604 26.3583L17.1021 32.9L32.0104 17.9917C29.9813 15.9604 29.9813 12.6563 32.0104 10.625C33.025 9.61042 34.3604 9.10208 35.6938 9.10208C37.0271 9.10208 38.3625 9.61042 39.3771 10.625L49.5375 0.464583C49.2625 0.189583 48.8854 0.0166667 48.4688 0.00625C48.275 0.00208333 48.0813 0 47.8875 0Z" fill="#CDD0D2"/>
<path d="M35.6937 9.10211C34.3604 9.10211 33.025 9.61045 32.0104 10.625C29.9812 12.6563 29.9812 15.9604 32.0104 17.9917L39.375 10.625C38.3604 9.60836 37.0271 9.10211 35.6937 9.10211Z" fill="#1D83D4"/>
<path d="M10.0939 33.3958C8.38969 33.3958 6.6876 34.0166 5.44385 35.2583C3.31677 37.3854 0.589688 46.2375 0.0646875 47.9875C-0.0998959 48.5375 0.0501041 49.1354 0.456354 49.5416L14.7397 35.2583C13.5001 34.0166 11.798 33.3958 10.0939 33.3958Z" fill="#DE8400"/>
</g>
<defs>
<clipPath id="clip0_202_970">
<rect width="50" height="50" fill="white"/>
</clipPath>
</defs>
</svg>
