<svg width="34" height="40" viewBox="0 0 34 40" fill="none" xmlns="http://www.w3.org/2000/svg">
<path d="M26.1254 9.22571H7.87456C7.05488 9.22571 6.26413 9.52892 5.65456 10.077L1.78429 13.5571C1.19229 14.0894 0.854248 14.848 0.854248 15.6441V16.6188H33.1457V15.6441C33.1457 14.848 32.8077 14.0893 32.2157 13.5571L28.3454 10.0771C27.7358 9.529 26.9452 9.22571 26.1254 9.22571Z" fill="url(#paint0_linear_305_1056)"/>
<path d="M28.1323 39.9999H5.86762C4.03656 39.9999 2.55225 38.5155 2.55225 36.6845V18.4875H31.4476V36.6845C31.4476 38.5155 29.9633 39.9999 28.1323 39.9999Z" fill="url(#paint1_linear_305_1056)"/>
<path d="M31.4476 18.4877V36.6844C31.4476 38.5157 29.9633 40 28.132 40H20.7112L2.55225 21.8401V18.4877H31.4476Z" fill="url(#paint2_linear_305_1056)"/>
<path d="M31.6833 21.6049H2.31668C1.50899 21.6049 0.854248 20.9502 0.854248 20.1425V15.8557C0.854248 15.0481 1.50899 14.3933 2.31668 14.3933H31.6833C32.491 14.3933 33.1457 15.0481 33.1457 15.8557V20.1425C33.1457 20.9502 32.491 21.6049 31.6833 21.6049Z" fill="url(#paint3_linear_305_1056)"/>
<path d="M25.6502 13.1215H8.34977C7.85848 13.1215 7.46021 12.7233 7.46021 12.232C7.46021 11.7407 7.85848 11.3424 8.34977 11.3424H25.6502C26.1415 11.3424 26.5397 11.7407 26.5397 12.232C26.5397 12.7233 26.1415 13.1215 25.6502 13.1215Z" fill="url(#paint4_linear_305_1056)"/>
<path d="M25.6544 12.1096V1.47678C25.6544 0.664549 24.9899 0 24.1777 0H13.7836C13.3302 0 12.8954 0.180078 12.5749 0.500706L8.84617 4.22941C8.52562 4.54996 8.34546 4.98478 8.34546 5.43812V12.1096L25.6544 12.1096Z" fill="url(#paint5_linear_305_1056)"/>
<path d="M25.6545 12.1096V1.47678C25.6545 0.664549 24.99 0 24.1778 0H13.7837C13.3304 0 12.8955 0.180078 12.575 0.500706L8.84628 4.22941C8.6084 4.46722 8.44816 4.768 8.3811 5.09255L15.3982 12.1096L25.6545 12.1096Z" fill="url(#paint6_linear_305_1056)"/>
<path d="M8.39624 5.02333C8.39075 5.04709 8.38573 5.07015 8.3811 5.09242H12.9044C13.2247 5.09242 13.4843 4.83274 13.4843 4.5125V0.0268555C13.4489 0.03313 13.4118 0.0405025 13.3735 0.0489731C13.0363 0.123561 12.7289 0.296895 12.4846 0.54113L8.88746 4.13831C8.6444 4.38152 8.47357 4.68819 8.39624 5.02333Z" fill="url(#paint7_linear_305_1056)"/>
<path d="M2.55225 31.4963V36.6845C2.55225 38.5156 4.03656 39.9999 5.86762 39.9999H28.1323C29.9633 39.9999 31.4476 38.5156 31.4476 36.6845V31.4963H2.55225Z" fill="url(#paint8_linear_305_1056)"/>
<defs>
<linearGradient id="paint0_linear_305_1056" x1="14.4864" y1="10.1353" x2="17.9219" y2="17.9267" gradientUnits="userSpaceOnUse">
<stop stop-color="#7ACBFF"/>
<stop offset="1" stop-color="#45A2E0"/>
</linearGradient>
<linearGradient id="paint1_linear_305_1056" x1="7.88574" y1="19.1585" x2="23.9705" y2="35.2433" gradientUnits="userSpaceOnUse">
<stop stop-color="#EDF5FF"/>
<stop offset="1" stop-color="#C7E9FF"/>
</linearGradient>
<linearGradient id="paint2_linear_305_1056" x1="16.9999" y1="27.5786" x2="16.9999" y2="18.7448" gradientUnits="userSpaceOnUse">
<stop stop-color="#7ACBFF" stop-opacity="0"/>
<stop offset="1" stop-color="#2F73A0"/>
</linearGradient>
<linearGradient id="paint3_linear_305_1056" x1="16.5005" y1="15.4688" x2="17.6608" y2="21.347" gradientUnits="userSpaceOnUse">
<stop stop-color="#7ACBFF"/>
<stop offset="1" stop-color="#45A2E0"/>
</linearGradient>
<linearGradient id="paint4_linear_305_1056" x1="17" y1="13.3059" x2="17" y2="10.8119" gradientUnits="userSpaceOnUse">
<stop stop-color="#2F73A0"/>
<stop offset="1" stop-color="#174461"/>
</linearGradient>
<linearGradient id="paint5_linear_305_1056" x1="14.2365" y1="2.76549" x2="23.5047" y2="15.4708" gradientUnits="userSpaceOnUse">
<stop stop-color="#FFF5D9"/>
<stop offset="1" stop-color="#FFCE47"/>
</linearGradient>
<linearGradient id="paint6_linear_305_1056" x1="17.7366" y1="3.69874" x2="9.88604" y2="-4.15176" gradientUnits="userSpaceOnUse">
<stop stop-color="#FF9356" stop-opacity="0"/>
<stop offset="1" stop-color="#FF755C"/>
</linearGradient>
<linearGradient id="paint7_linear_305_1056" x1="10.5959" y1="2.22286" x2="13.9874" y2="5.61431" gradientUnits="userSpaceOnUse">
<stop stop-color="#FFF5D9"/>
<stop offset="1" stop-color="#FFCE47"/>
</linearGradient>
<linearGradient id="paint8_linear_305_1056" x1="16.9999" y1="36.4124" x2="16.9999" y2="41.2611" gradientUnits="userSpaceOnUse">
<stop stop-color="#7ACBFF" stop-opacity="0"/>
<stop offset="1" stop-color="#2F73A0"/>
</linearGradient>
</defs>
</svg>
