<svg width="33" height="33" viewBox="0 0 33 33" fill="none" xmlns="http://www.w3.org/2000/svg">
<rect x="0.5" y="0.5" width="32" height="32" rx="4.5" fill="#1E63EF"/>
<g clip-path="url(#clip0_305_960)">
<path d="M9.3335 11.8333C9.3335 11.3913 9.50909 10.9673 9.82165 10.6548C10.1342 10.3422 10.5581 10.1666 11.0002 10.1666H21.0002C21.4422 10.1666 21.8661 10.3422 22.1787 10.6548C22.4912 10.9673 22.6668 11.3913 22.6668 11.8333V21.8333C22.6668 22.2753 22.4912 22.6992 22.1787 23.0118C21.8661 23.3244 21.4422 23.5 21.0002 23.5H11.0002C10.5581 23.5 10.1342 23.3244 9.82165 23.0118C9.50909 22.6992 9.3335 22.2753 9.3335 21.8333V11.8333Z" stroke="white" stroke-width="1.5" stroke-linecap="round" stroke-linejoin="round"/>
<path d="M19.3335 8.5V11.8333" stroke="white" stroke-width="1.5" stroke-linecap="round" stroke-linejoin="round"/>
<path d="M12.6665 8.5V11.8333" stroke="white" stroke-width="1.5" stroke-linecap="round" stroke-linejoin="round"/>
<path d="M9.3335 15.1666H22.6668" stroke="white" stroke-width="1.5" stroke-linecap="round" stroke-linejoin="round"/>
<path d="M12.6665 18.5H14.3332V20.1667H12.6665V18.5Z" stroke="white" stroke-width="1.5" stroke-linecap="round" stroke-linejoin="round"/>
</g>
<defs>
<clipPath id="clip0_305_960">
<rect width="20" height="20" fill="white" transform="translate(6 6)"/>
</clipPath>
</defs>
</svg>
