<svg width="25" height="25" viewBox="0 0 25 25" fill="none" xmlns="http://www.w3.org/2000/svg">
<g clip-path="url(#clip0_44_3846)">
<g clip-path="url(#clip1_44_3846)">
<path d="M21.902 5.63492H2.88379V25H21.902V5.63492Z" fill="#E6E5E5"/>
<path d="M21.902 1.23456H2.88379V5.63491H21.902V1.23456Z" fill="#EE3131"/>
<path d="M2.88363 5.63492H0V25H2.88363V5.63492Z" fill="#CCCBCA"/>
<path d="M2.88363 1.23456H0V5.63491H2.88363V1.23456Z" fill="#D65A38"/>
<path d="M21.9017 5.63492V21.3404H5.98169C4.27383 21.3404 2.89209 19.9206 2.89209 18.157V5.63492H21.9017Z" fill="#EFEFEF"/>
<path d="M9.07153 18.157C9.07153 19.9118 7.68979 21.3404 5.98193 21.3404H21.9019C23.6098 21.3404 24.9915 19.9206 24.9915 18.1658H9.07153V18.157Z" fill="#CCCBCA"/>
<path d="M19.6278 2.46914V1.90476C19.9882 1.90476 20.2714 1.60494 20.2714 1.24339C20.2714 0.881835 19.9797 0.582012 19.6278 0.582012C19.2759 0.582012 18.9841 0.881835 18.9841 1.24339H18.4263C18.4263 0.564375 18.967 0.00881958 19.6278 0.00881958C20.2886 0.00881958 20.8293 0.564375 20.8293 1.24339C20.8293 1.9224 20.2886 2.47796 19.6278 2.47796V2.46914Z" fill="#3F4A5A"/>
<path d="M16.7357 2.46914V1.90476C17.0961 1.90476 17.3794 1.60494 17.3794 1.24339C17.3794 0.881835 17.0876 0.582012 16.7357 0.582012C16.3838 0.582012 16.092 0.881835 16.092 1.24339H15.5342C15.5342 0.564375 16.0749 0.00881958 16.7357 0.00881958C17.3965 0.00881958 17.9372 0.564375 17.9372 1.24339C17.9372 1.9224 17.3965 2.47796 16.7357 2.47796V2.46914Z" fill="#3F4A5A"/>
<path d="M13.8431 2.46914V1.90476C14.2036 1.90476 14.4868 1.60494 14.4868 1.24339C14.4868 0.881835 14.195 0.582012 13.8431 0.582012C13.4912 0.582012 13.1994 0.881835 13.1994 1.24339H12.6416C12.6416 0.564375 13.1823 0.00881958 13.8431 0.00881958C14.5039 0.00881958 15.0446 0.564375 15.0446 1.24339C15.0446 1.9224 14.5039 2.47796 13.8431 2.47796V2.46914Z" fill="#3F4A5A"/>
<path d="M10.9512 2.46914V1.90476C11.3031 1.90476 11.5949 1.60494 11.5949 1.24339C11.5949 0.881835 11.3031 0.582012 10.9512 0.582012C10.5994 0.582012 10.3076 0.881835 10.3076 1.24339H9.7583C9.7583 0.564375 10.299 0.00881958 10.9598 0.00881958C11.6206 0.00881958 12.1613 0.564375 12.1613 1.24339C12.1613 1.9224 11.6206 2.47796 10.9598 2.47796L10.9512 2.46914Z" fill="#3F4A5A"/>
<path d="M8.05865 2.46914V1.90476C8.4191 1.90476 8.70232 1.60494 8.70232 1.24339C8.70232 0.881835 8.41052 0.582012 8.05865 0.582012C7.70678 0.582012 7.41498 0.881835 7.41498 1.24339H6.86572C6.86572 0.564375 7.4064 0.00881958 8.06723 0.00881958C8.72806 0.00881958 9.26874 0.564375 9.26874 1.24339C9.26874 1.9224 8.72806 2.47796 8.06723 2.47796L8.05865 2.46914Z" fill="#3F4A5A"/>
<path d="M5.15805 2.46914V1.90476C5.50992 1.90476 5.80172 1.60494 5.80172 1.24339C5.80172 0.881835 5.50992 0.582012 5.15805 0.582012C4.80618 0.582012 4.51439 0.881835 4.51439 1.24339H3.95654C3.95654 0.564375 4.49722 0.00881958 5.15805 0.00881958C5.81888 0.00881958 6.35956 0.564375 6.35956 1.24339C6.35956 1.9224 5.81888 2.47796 5.15805 2.47796V2.46914Z" fill="#3F4A5A"/>
<path d="M11.4056 8.68607H5.15771V15.1058H11.4056V8.68607Z" fill="#EE3131"/>
<path d="M13.6798 11.0317H11.397V8.68607H13.6798V11.0317ZM11.6974 10.7231H13.3795V8.99471H11.6974V10.7231Z" fill="#3F4A5A"/>
<path d="M15.6623 11.0317H13.3794V8.68607H15.6623V11.0317ZM13.6798 10.7231H15.3619V8.99471H13.6798V10.7231Z" fill="#3F4A5A"/>
<path d="M17.6447 11.0317H15.3618V8.68607H17.6447V11.0317ZM15.6622 10.7231H17.3443V8.99471H15.6622V10.7231Z" fill="#3F4A5A"/>
<path d="M19.6271 11.0317H17.3442V8.68607H19.6271V11.0317ZM17.6446 10.7231H19.3267V8.99471H17.6446V10.7231Z" fill="#3F4A5A"/>
<path d="M13.6798 13.0688H11.397V10.7231H13.6798V13.0688ZM11.6974 12.7602H13.3795V11.0318H11.6974V12.7602Z" fill="#3F4A5A"/>
<path d="M15.6623 13.0688H13.3794V10.7231H15.6623V13.0688ZM13.6798 12.7602H15.3619V11.0318H13.6798V12.7602Z" fill="#3F4A5A"/>
<path d="M17.6447 13.0688H15.3618V10.7231H17.6447V13.0688ZM15.6622 12.7602H17.3443V11.0318H15.6622V12.7602Z" fill="#3F4A5A"/>
<path d="M19.6271 13.0688H17.3442V10.7231H19.6271V13.0688ZM17.6446 12.7602H19.3267V11.0318H17.6446V12.7602Z" fill="#3F4A5A"/>
<path d="M13.6798 15.1058H11.397V12.7601H13.6798V15.1058ZM11.6974 14.7972H13.3795V13.0688H11.6974V14.7972Z" fill="#3F4A5A"/>
<path d="M15.6623 15.1058H13.3794V12.7601H15.6623V15.1058ZM13.6798 14.7972H15.3619V13.0688H13.6798V14.7972Z" fill="#3F4A5A"/>
<path d="M17.6447 15.1058H15.3618V12.7601H17.6447V15.1058ZM15.6622 14.7972H17.3443V13.0688H15.6622V14.7972Z" fill="#3F4A5A"/>
<path d="M19.6271 15.1058H17.3442V12.7601H19.6271V15.1058ZM17.6446 14.7972H19.3267V13.0688H17.6446V14.7972Z" fill="#3F4A5A"/>
</g>
</g>
<defs>
<clipPath id="clip0_44_3846">
<rect width="25" height="25" fill="white"/>
</clipPath>
<clipPath id="clip1_44_3846">
<rect width="25" height="25" fill="white"/>
</clipPath>
</defs>
</svg>
