<svg width="40" height="40" viewBox="0 0 40 40" fill="none" xmlns="http://www.w3.org/2000/svg">
<path d="M35.7608 36.0249L30.9453 34.9651L29.4528 39.6768C29.3454 40.0156 28.8866 40.0653 28.7093 39.7573L22.752 29.4085C25.6865 28.7727 28.2975 27.2657 30.3023 25.1713L36.2027 35.4223C36.3797 35.7298 36.1074 36.1012 35.7608 36.0249Z" fill="#FD646F"/>
<path d="M35.7608 36.0249L31.3097 35.0452C31.1033 34.9998 30.8963 35.1193 30.8325 35.3207L29.4528 39.6767C29.3454 40.0155 28.8866 40.0652 28.7093 39.7572L23.6057 30.8908L22.752 29.4084C25.6865 28.7726 28.2975 27.2656 30.3023 25.1711L31.1495 26.642L36.2027 35.4221C36.3796 35.7298 36.1073 36.1012 35.7608 36.0249Z" fill="#FD646F"/>
<path d="M35.7607 36.0246L31.3099 35.0451C31.1032 35.0001 30.8965 35.1194 30.8328 35.3204L31.3118 33.8317C31.3765 33.6309 31.5834 33.5124 31.7893 33.5581L35.6193 34.4095L36.2027 35.4225C36.3799 35.7297 36.1071 36.1014 35.7607 36.0246Z" fill="#FC4755"/>
<path d="M17.3422 29.2843L11.2906 39.795C11.1134 40.103 10.6546 40.0533 10.5472 39.7145L9.16736 35.3585C9.10355 35.157 8.89654 35.0375 8.69017 35.0829L4.23912 36.0625C3.89256 36.1388 3.62027 35.7674 3.79731 35.4599L9.4256 25.6816C11.5268 27.6737 14.3611 28.7934 17.3422 29.2843Z" fill="#FD646F"/>
<path d="M10.2222 27.1363L5.20688 35.8492L4.23944 36.0624C3.89288 36.1388 3.62051 35.7673 3.79754 35.4597L8.58837 27.1363L9.88391 24.8796C10.2327 25.2099 10.5971 25.5237 10.977 25.8187L10.2222 27.1363Z" fill="#FC4755"/>
<path d="M11.881 38.7689L11.2903 39.795C11.113 40.103 10.6547 40.0539 10.5469 39.7149L9.16705 35.3589C9.10332 35.1571 8.89663 35.0378 8.68994 35.0827L10.216 34.747C10.4224 34.7016 10.6293 34.8211 10.6931 35.0225L11.881 38.7689Z" fill="#FC4755"/>
<path d="M9.56195 25.433L13.5421 27.2278L17.3424 29.2844L16.3234 31.0531C13.482 30.4763 10.8456 29.1537 8.66681 27.2059C8.64066 27.1829 8.61452 27.16 8.58838 27.1362L9.56195 25.433Z" fill="#FC4755"/>
<path d="M31.1495 26.6421L30.3023 25.1713L25.8193 27.1499L22.752 29.4085L23.0967 30.0071L23.9433 31.4775L28.7093 39.7572C28.8866 40.0652 29.3454 40.0155 29.4528 39.6767L29.7563 38.7186L25.0191 30.4672C27.3124 29.6692 29.4001 28.3709 31.1495 26.6421Z" fill="#FC4755"/>
<path d="M34.8269 14.8718C34.8269 18.869 33.2543 22.499 30.6947 25.1712C28.6899 27.2657 26.0789 28.7727 23.1444 29.4085C22.1305 29.6281 21.0791 29.7436 19.9999 29.7436C19.1764 29.7436 18.3692 29.6764 17.5825 29.547C14.7542 29.0816 12.1946 27.8131 10.1457 25.9825C10.0346 25.8841 9.92594 25.7842 9.8181 25.6818C9.43576 25.3196 9.07303 24.9369 8.7299 24.5362C8.40148 24.1511 8.09267 23.7488 7.80429 23.3309C6.93831 22.078 6.25941 20.6841 5.80763 19.1911C5.39506 17.8243 5.17285 16.3747 5.17285 14.8719C5.17285 6.65865 11.8115 0 19.9999 0C21.4974 0 22.9434 0.222867 24.3053 0.637557C25.7946 1.08909 27.1834 1.77003 28.4334 2.63944C28.85 2.92873 29.2512 3.23844 29.6343 3.56865C30.1474 4.00785 30.6294 4.48234 31.0779 4.98706C33.4103 7.61498 34.8269 11.0778 34.8269 14.8718Z" fill="#FAA515"/>
<path d="M20 25.5236C25.8652 25.5236 30.6198 20.7546 30.6198 14.8717C30.6198 8.98877 25.8652 4.21973 20 4.21973C14.1348 4.21973 9.38013 8.98877 9.38013 14.8717C9.38013 20.7546 14.1348 25.5236 20 25.5236Z" fill="#FAD207"/>
<path d="M30.6197 14.8719C30.6197 20.7545 25.865 25.5236 20.0001 25.5236C14.1351 25.5236 9.38037 20.7545 9.38037 14.8719C9.38037 14.4277 9.40733 13.9901 9.46043 13.5608C10.1042 18.8256 14.5779 22.9014 20.0001 22.9014C25.4222 22.9014 29.8959 18.8256 30.5397 13.5608C30.5928 13.9902 30.6197 14.4277 30.6197 14.8719Z" fill="#FAA515"/>
<path fill-rule="evenodd" clip-rule="evenodd" d="M20.0001 4.22009C14.1351 4.22009 9.38037 8.98919 9.38037 14.8719C9.38037 20.7546 14.1351 25.5237 20.0001 25.5237C25.865 25.5237 30.6197 20.7546 30.6197 14.8719C30.6197 8.98919 25.865 4.22009 20.0001 4.22009ZM20.0001 24.2945C14.8197 24.2945 10.6058 20.0678 10.6058 14.8719C10.6058 9.67593 14.8197 5.44929 20.0001 5.44929C25.1804 5.44929 29.3943 9.67593 29.3943 14.8719C29.3943 20.0678 25.1804 24.2945 20.0001 24.2945Z" fill="#FAF063"/>
<path d="M20.3669 8.98148L21.8258 11.9615C21.8852 12.0829 22.0008 12.1671 22.1346 12.1863L25.4131 12.6573C25.7487 12.7055 25.8829 13.1178 25.64 13.3543L23.2621 15.6698C23.1655 15.7638 23.1216 15.8993 23.1445 16.0321L23.7112 19.3061C23.7691 19.6405 23.4174 19.8956 23.1174 19.7367L20.1913 18.1861C20.0717 18.1227 19.9284 18.1227 19.8088 18.1861L16.8827 19.7367C16.5827 19.8957 16.231 19.6406 16.2889 19.3061L16.8556 16.0321C16.8785 15.8993 16.8346 15.7638 16.738 15.6698L14.3601 13.3543C14.1172 13.1178 14.2514 12.7055 14.5869 12.6573L17.8655 12.1863C17.9992 12.1671 18.1148 12.0829 18.1743 11.9615L19.6331 8.98148C19.7826 8.67626 20.2175 8.67626 20.3669 8.98148Z" fill="#FAA515"/>
</svg>
