<svg width="50" height="50" viewBox="0 0 50 50" fill="none" xmlns="http://www.w3.org/2000/svg">
<path d="M47.514 31.6617H20.8245C19.4514 31.6617 18.3384 30.5486 18.3384 29.1756V2.48608C18.3384 1.11304 19.4514 0 20.8245 0H47.514C48.887 0 50 1.11304 50 2.48608V29.1756C50 30.5486 48.887 31.6617 47.514 31.6617Z" fill="url(#paint0_linear_202_1002)"/>
<path d="M18.3384 13.3234V29.1756C18.3384 30.5487 19.4514 31.6617 20.8245 31.6617H47.514C48.887 31.6617 50 30.5487 50 29.1756V13.3234H18.3384Z" fill="url(#paint1_linear_202_1002)"/>
<path d="M39.9282 9.73883V31.6617H47.5138C48.8868 31.6617 49.9999 30.5486 49.9999 29.1756V19.8105L39.9282 9.73883Z" fill="url(#paint2_linear_202_1002)"/>
<path d="M38.3449 40.8308H11.6555C10.2825 40.8308 9.16943 39.7177 9.16943 38.3447V11.6553C9.16943 10.2822 10.2825 9.16919 11.6555 9.16919H38.345C39.7181 9.16919 40.8311 10.2822 40.8311 11.6553V38.3448C40.831 39.7177 39.718 40.8308 38.3449 40.8308Z" fill="url(#paint3_linear_202_1002)"/>
<path d="M38.3448 9.16919H18.3384V29.1756C18.3384 30.5486 19.4514 31.6616 20.8245 31.6616H40.8308V11.6553C40.8308 10.2822 39.7178 9.16919 38.3448 9.16919Z" fill="url(#paint4_linear_202_1002)"/>
<path d="M9.16943 22.4924V38.3447C9.16943 39.7177 10.2825 40.8308 11.6555 40.8308H38.345C39.7181 40.8308 40.8311 39.7177 40.8311 38.3447V22.4924H9.16943Z" fill="url(#paint5_linear_202_1002)"/>
<path d="M30.7593 18.9079V40.8307H38.3449C39.7179 40.8307 40.8309 39.7177 40.8309 38.3447V28.9796L30.7593 18.9079Z" fill="url(#paint6_linear_202_1002)"/>
<path d="M29.1756 50H2.48608C1.11304 50 0 48.8869 0 47.5139V20.8244C0 19.4514 1.11304 18.3383 2.48608 18.3383H29.1756C30.5486 18.3383 31.6617 19.4514 31.6617 20.8244V47.5139C31.6617 48.8869 30.5486 50 29.1756 50Z" fill="url(#paint7_linear_202_1002)"/>
<path d="M0 31.6617V47.5139C0 48.887 1.11304 50 2.48608 50H29.1756C30.5486 50 31.6617 48.887 31.6617 47.5139V31.6617H0Z" fill="url(#paint8_linear_202_1002)"/>
<path d="M29.1758 18.3383H9.16943V38.3447C9.16943 39.7177 10.2825 40.8308 11.6555 40.8308H31.6619V20.8244C31.6619 19.4514 30.5488 18.3383 29.1758 18.3383Z" fill="url(#paint9_linear_202_1002)"/>
<path d="M31.6617 20.8244C31.6617 19.4514 30.5487 18.3383 29.1756 18.3383H18.3384V29.1756C18.3384 30.5486 19.4514 31.6617 20.8245 31.6617H31.6617V20.8244Z" fill="url(#paint10_linear_202_1002)"/>
<defs>
<linearGradient id="paint0_linear_202_1002" x1="23.36" y1="5.02167" x2="46.4188" y2="28.0804" gradientUnits="userSpaceOnUse">
<stop stop-color="#FEE45A"/>
<stop offset="1" stop-color="#FEA613"/>
</linearGradient>
<linearGradient id="paint1_linear_202_1002" x1="34.1693" y1="23.4769" x2="34.1693" y2="31.5647" gradientUnits="userSpaceOnUse">
<stop stop-color="#FEA613" stop-opacity="0"/>
<stop offset="1" stop-color="#E94444"/>
</linearGradient>
<linearGradient id="paint2_linear_202_1002" x1="47.8138" y1="21.7694" x2="36.2452" y2="20.2008" gradientUnits="userSpaceOnUse">
<stop stop-color="#FEA613" stop-opacity="0"/>
<stop offset="1" stop-color="#E94444"/>
</linearGradient>
<linearGradient id="paint3_linear_202_1002" x1="15.472" y1="15.4717" x2="37.828" y2="37.8277" gradientUnits="userSpaceOnUse">
<stop stop-color="#FEAEE1"/>
<stop offset="1" stop-color="#FE2AA8"/>
</linearGradient>
<linearGradient id="paint4_linear_202_1002" x1="12.2807" y1="3.11144" x2="38.9089" y2="29.7397" gradientUnits="userSpaceOnUse">
<stop stop-color="#FEA613" stop-opacity="0"/>
<stop offset="1" stop-color="#E94444"/>
</linearGradient>
<linearGradient id="paint5_linear_202_1002" x1="25.0002" y1="32.6461" x2="25.0002" y2="40.7339" gradientUnits="userSpaceOnUse">
<stop stop-color="#FE0364" stop-opacity="0"/>
<stop offset="0.3975" stop-color="#F70360" stop-opacity="0.398"/>
<stop offset="0.9701" stop-color="#E40257" stop-opacity="0.97"/>
<stop offset="1" stop-color="#E30256"/>
</linearGradient>
<linearGradient id="paint6_linear_202_1002" x1="38.6448" y1="30.9386" x2="27.0761" y2="29.37" gradientUnits="userSpaceOnUse">
<stop stop-color="#A72B2B" stop-opacity="0"/>
<stop offset="1" stop-color="#42210B"/>
</linearGradient>
<linearGradient id="paint7_linear_202_1002" x1="3.83373" y1="22.172" x2="31.6069" y2="49.9452" gradientUnits="userSpaceOnUse">
<stop stop-color="#B3DAFE"/>
<stop offset="1" stop-color="#0182FC"/>
</linearGradient>
<linearGradient id="paint8_linear_202_1002" x1="15.8309" y1="41.8152" x2="15.8309" y2="49.9031" gradientUnits="userSpaceOnUse">
<stop stop-color="#0182FC" stop-opacity="0"/>
<stop offset="1" stop-color="#024C67"/>
</linearGradient>
<linearGradient id="paint9_linear_202_1002" x1="5.9612" y1="15.1301" x2="37.3249" y2="46.4938" gradientUnits="userSpaceOnUse">
<stop stop-color="#FE0364" stop-opacity="0"/>
<stop offset="0.3975" stop-color="#F70360" stop-opacity="0.398"/>
<stop offset="0.9701" stop-color="#E40257" stop-opacity="0.97"/>
<stop offset="1" stop-color="#E30256"/>
</linearGradient>
<linearGradient id="paint10_linear_202_1002" x1="14.1484" y1="14.1483" x2="28.3143" y2="28.3142" gradientUnits="userSpaceOnUse">
<stop stop-color="#FE0364" stop-opacity="0"/>
<stop offset="0.3975" stop-color="#F70360" stop-opacity="0.398"/>
<stop offset="0.9701" stop-color="#E40257" stop-opacity="0.97"/>
<stop offset="1" stop-color="#E30256"/>
</linearGradient>
</defs>
</svg>
