<svg width="36" height="40" viewBox="0 0 36 40" fill="none" xmlns="http://www.w3.org/2000/svg">
<path d="M7.55517 40H29.4982C30.818 40 31.8879 38.9302 31.8879 37.6104V5.84546C31.8879 4.52569 30.818 3.45581 29.4982 3.45581H7.55517C6.23541 3.45581 5.16553 4.52569 5.16553 5.84546V37.6104C5.16553 38.9302 6.23541 40 7.55517 40Z" fill="url(#paint0_linear_305_1134)"/>
<path d="M5.16553 32.2771V37.6102C5.16553 38.93 6.23541 39.9998 7.55517 39.9998H29.4982C30.818 39.9998 31.8879 38.93 31.8879 37.6102V32.2771H5.16553Z" fill="url(#paint1_linear_305_1134)"/>
<path d="M29.4983 3.45569H27.5552V36.4727H31.888V5.84541C31.888 4.52565 30.8181 3.45569 29.4983 3.45569Z" fill="url(#paint2_linear_305_1134)"/>
<path d="M14.5811 15.0111C14.0941 15.7241 14.0941 16.6639 14.5811 17.377C15.2241 18.3185 15.7831 19.1692 16.5593 19.9149L31.8879 35.2434V11.8997C29.7658 10.129 27.2479 9.19678 24.5464 9.19678C20.5367 9.19678 17.0869 11.3421 14.5811 15.0111Z" fill="url(#paint3_linear_305_1134)"/>
<path d="M3.35596 38.6182H25.2989C26.6187 38.6182 27.6886 37.5483 27.6886 36.2286V4.46362C27.6886 3.14386 26.6187 2.07397 25.2989 2.07397H3.35596C2.03619 2.07397 0.966309 3.14386 0.966309 4.46362V36.2286C0.96623 37.5483 2.03619 38.6182 3.35596 38.6182Z" fill="url(#paint4_linear_305_1134)"/>
<path d="M0.966309 31.9817V36.2286C0.966309 37.5484 2.03619 38.6182 3.35596 38.6182H25.2989C26.6187 38.6182 27.6886 37.5484 27.6886 36.2286V31.9817H0.966309Z" fill="url(#paint5_linear_305_1134)"/>
<path d="M3.97461 35.9749L6.61806 38.6183H25.2992C26.6189 38.6183 27.6888 37.5484 27.6888 36.2287V35.9749L3.97461 35.9749Z" fill="url(#paint6_linear_305_1134)"/>
<path d="M27.5543 0H11.5073C10.8074 0 10.1362 0.278039 9.64123 0.772941L3.88476 6.52949C3.38986 7.02439 3.11182 7.69569 3.11182 8.39561V34.1929C3.11182 35.4469 4.13778 36.4729 5.39174 36.4729H27.555C28.8086 36.4729 29.8342 35.4472 29.8342 34.1936V2.27992C29.8342 1.02596 28.8083 0 27.5543 0Z" fill="url(#paint7_linear_305_1134)"/>
<path d="M12.8702 18.2363H7.37035C6.96729 18.2363 6.64062 17.9095 6.64062 17.5066V16.0471C6.64062 15.644 6.96737 15.3174 7.37035 15.3174H12.8702C13.2733 15.3174 13.5999 15.6441 13.5999 16.0471V17.5066C13.5999 17.9095 13.2732 18.2363 12.8702 18.2363Z" fill="white"/>
<path d="M25.5755 18.2363H15.9736C15.5706 18.2363 15.2439 17.9095 15.2439 17.5066V16.0471C15.2439 15.644 15.5706 15.3174 15.9736 15.3174H25.5755C25.9786 15.3174 26.3052 15.6441 26.3052 16.0471V17.5066C26.3053 17.9095 25.9786 18.2363 25.5755 18.2363Z" fill="white"/>
<path d="M20.0757 22.6328H25.5755C25.9786 22.6328 26.3052 22.306 26.3052 21.903V20.4436C26.3052 20.0405 25.9785 19.7139 25.5755 19.7139H20.0757C19.6726 19.7139 19.3459 20.0406 19.3459 20.4436V21.903C19.3459 22.306 19.6726 22.6328 20.0757 22.6328Z" fill="white"/>
<path d="M7.37035 22.6328H16.9722C17.3753 22.6328 17.702 22.306 17.702 21.903V20.4436C17.702 20.0405 17.3752 19.7139 16.9722 19.7139H7.37035C6.96729 19.7139 6.64062 20.0406 6.64062 20.4436V21.903C6.64062 22.306 6.96729 22.6328 7.37035 22.6328Z" fill="white"/>
<path d="M12.8702 27.0293H7.37035C6.96729 27.0293 6.64062 26.7025 6.64062 26.2995V24.8401C6.64062 24.437 6.96737 24.1104 7.37035 24.1104H12.8702C13.2733 24.1104 13.5999 24.4371 13.5999 24.8401V26.2995C13.5999 26.7026 13.2732 27.0293 12.8702 27.0293Z" fill="white"/>
<path d="M25.5755 27.0293H15.9736C15.5706 27.0293 15.2439 26.7025 15.2439 26.2995V24.8401C15.2439 24.437 15.5706 24.1104 15.9736 24.1104H25.5755C25.9786 24.1104 26.3052 24.4371 26.3052 24.8401V26.2995C26.3053 26.7026 25.9786 27.0293 25.5755 27.0293Z" fill="white"/>
<path d="M29.8344 34.1936V2.27992C29.8344 1.02596 28.8084 0 27.5544 0H11.5075C10.8075 0 10.1363 0.278039 9.64134 0.772941L3.88487 6.52949C3.51765 6.89671 3.2702 7.36102 3.16675 7.86204L29.812 34.5073C29.8264 34.4046 29.8344 34.3 29.8344 34.1936Z" fill="url(#paint8_linear_305_1134)"/>
<path d="M3.19012 7.75535C3.18165 7.79198 3.17389 7.82767 3.16675 7.8621H10.15C10.6446 7.8621 11.0454 7.46123 11.0454 6.96672V0.041626C10.9908 0.0513515 10.9335 0.062724 10.8744 0.0758221C10.3538 0.190959 9.87914 0.458646 9.50212 0.835587L3.94863 6.38908C3.57318 6.76461 3.30949 7.23794 3.19012 7.75535Z" fill="url(#paint9_linear_305_1134)"/>
<path d="M3.11182 31.9817V34.1929C3.11182 35.4469 4.13778 36.4728 5.39174 36.4728H27.555C28.8086 36.4728 29.8342 35.4472 29.8342 34.1936V31.9817H3.11182Z" fill="url(#paint10_linear_305_1134)"/>
<path d="M31.8879 11.8997C29.7658 10.129 27.2479 9.19678 24.5464 9.19678C20.5367 9.19678 17.0869 11.3422 14.5811 15.0111C14.0941 15.7241 14.0941 16.6639 14.5811 17.377C15.2241 18.3185 15.7831 19.1692 16.5593 19.9149L31.8879 35.2434V11.8997Z" fill="url(#paint11_linear_305_1134)"/>
<path d="M24.5463 9.03992C20.5367 9.03992 16.9299 11.3423 14.4241 15.0111C13.9371 15.7242 13.9371 16.6641 14.4241 17.3771C16.93 21.046 20.5367 23.3483 24.5463 23.3483C28.556 23.3483 32.1628 21.046 34.6686 17.3771C35.1556 16.6641 35.1556 15.7242 34.6686 15.0111C32.1628 11.3422 28.556 9.03992 24.5463 9.03992Z" fill="url(#paint12_linear_305_1134)"/>
<path d="M24.5465 22.4933C28.0254 22.4933 30.8456 19.6731 30.8456 16.1942C30.8456 12.7152 28.0254 9.89502 24.5465 9.89502C21.0675 9.89502 18.2473 12.7152 18.2473 16.1942C18.2473 19.6731 21.0675 22.4933 24.5465 22.4933Z" fill="url(#paint13_linear_305_1134)"/>
<path d="M24.5464 21.3314C27.3837 21.3314 29.6837 19.0314 29.6837 16.1941C29.6837 13.3569 27.3837 11.0569 24.5464 11.0569C21.7092 11.0569 19.4092 13.3569 19.4092 16.1941C19.4092 19.0314 21.7092 21.3314 24.5464 21.3314Z" fill="url(#paint14_linear_305_1134)"/>
<defs>
<linearGradient id="paint0_linear_305_1134" x1="9.04521" y1="12.2464" x2="30.0611" y2="33.2624" gradientUnits="userSpaceOnUse">
<stop stop-color="#45A2E0"/>
<stop offset="1" stop-color="#2F73A0"/>
</linearGradient>
<linearGradient id="paint1_linear_305_1134" x1="18.5267" y1="36.9972" x2="18.5267" y2="39.7297" gradientUnits="userSpaceOnUse">
<stop stop-color="#174461" stop-opacity="0"/>
<stop offset="1" stop-color="#174461"/>
</linearGradient>
<linearGradient id="paint2_linear_305_1134" x1="31.4887" y1="20.4683" x2="26.6257" y2="19.6101" gradientUnits="userSpaceOnUse">
<stop stop-color="#174461" stop-opacity="0"/>
<stop offset="1" stop-color="#174461"/>
</linearGradient>
<linearGradient id="paint3_linear_305_1134" x1="29.6061" y1="28.6129" x2="27.0963" y2="23.1227" gradientUnits="userSpaceOnUse">
<stop stop-color="#174461" stop-opacity="0"/>
<stop offset="1" stop-color="#174461"/>
</linearGradient>
<linearGradient id="paint4_linear_305_1134" x1="4.84599" y1="10.8646" x2="25.8619" y2="31.8806" gradientUnits="userSpaceOnUse">
<stop stop-color="#7ACBFF"/>
<stop offset="1" stop-color="#45A2E0"/>
</linearGradient>
<linearGradient id="paint5_linear_305_1134" x1="14.3276" y1="36.6158" x2="14.3276" y2="38.5706" gradientUnits="userSpaceOnUse">
<stop stop-color="#2F73A0" stop-opacity="0"/>
<stop offset="1" stop-color="#2F73A0"/>
</linearGradient>
<linearGradient id="paint6_linear_305_1134" x1="15.957" y1="38.6054" x2="15.7663" y2="34.6006" gradientUnits="userSpaceOnUse">
<stop stop-color="#2F73A0" stop-opacity="0"/>
<stop offset="1" stop-color="#2F73A0"/>
</linearGradient>
<linearGradient id="paint7_linear_305_1134" x1="9.65291" y1="8.88698" x2="31.2505" y2="38.4943" gradientUnits="userSpaceOnUse">
<stop stop-color="#C7E9FF"/>
<stop offset="1" stop-color="#7ACBFF"/>
</linearGradient>
<linearGradient id="paint8_linear_305_1134" x1="29.1079" y1="17.2081" x2="-6.83529" y2="-18.7351" gradientUnits="userSpaceOnUse">
<stop stop-color="#7ACBFF" stop-opacity="0"/>
<stop offset="1" stop-color="#2F73A0"/>
</linearGradient>
<linearGradient id="paint9_linear_305_1134" x1="6.58612" y1="3.4319" x2="11.822" y2="8.66767" gradientUnits="userSpaceOnUse">
<stop stop-color="#C7E9FF"/>
<stop offset="1" stop-color="#7ACBFF"/>
</linearGradient>
<linearGradient id="paint10_linear_305_1134" x1="16.473" y1="33.1616" x2="16.473" y2="36.708" gradientUnits="userSpaceOnUse">
<stop stop-color="#7ACBFF" stop-opacity="0"/>
<stop offset="1" stop-color="#2F73A0"/>
</linearGradient>
<linearGradient id="paint11_linear_305_1134" x1="31.7486" y1="23.4539" x2="22.6505" y2="15.7676" gradientUnits="userSpaceOnUse">
<stop stop-color="#7ACBFF" stop-opacity="0"/>
<stop offset="1" stop-color="#2F73A0"/>
</linearGradient>
<linearGradient id="paint12_linear_305_1134" x1="20.8485" y1="12.4962" x2="30.039" y2="21.6867" gradientUnits="userSpaceOnUse">
<stop stop-color="#EDF5FF"/>
<stop offset="1" stop-color="#C7E9FF"/>
</linearGradient>
<linearGradient id="paint13_linear_305_1134" x1="28.1676" y1="19.8153" x2="7.655" y2="-0.697377" gradientUnits="userSpaceOnUse">
<stop stop-color="#7ACBFF" stop-opacity="0"/>
<stop offset="1" stop-color="#2F73A0"/>
</linearGradient>
<linearGradient id="paint14_linear_305_1134" x1="22.7359" y1="14.3836" x2="29.3892" y2="21.0369" gradientUnits="userSpaceOnUse">
<stop stop-color="#FF4181"/>
<stop offset="1" stop-color="#843561"/>
</linearGradient>
</defs>
</svg>
