<svg width="35" height="35" viewBox="0 0 35 35" fill="none" xmlns="http://www.w3.org/2000/svg">
<rect width="35" height="35" rx="17.5" fill="#F2F2F2"/>
<g clip-path="url(#clip0_305_1077)">
<path d="M19.2201 24.6895L17.7782 22.1005L16.2843 23.2729L17.4368 25.3422L19.2201 24.6895ZM22.4813 9.24056C23.4943 9.24056 24.3156 10.0617 24.3156 11.0746C24.3156 11.4124 24.2242 11.7287 24.065 12.0006C24.6992 12.491 25.0706 13.2436 25.0706 14.0474C25.0706 14.3177 24.8514 14.5367 24.5811 14.5367H20.3816C20.1113 14.5367 19.8923 14.3177 19.8923 14.0474C19.8923 13.2433 20.2637 12.491 20.8979 12.0006C20.7387 11.7287 20.6473 11.4124 20.6473 11.0746C20.6473 10.0619 21.4687 9.24056 22.4813 9.24056ZM23.3506 12.6899C23.092 12.8295 22.796 12.9086 22.4813 12.9086C22.1669 12.9086 21.8709 12.8295 21.6123 12.6899C21.2972 12.8928 21.0595 13.2011 20.9461 13.5582H24.0165C23.9034 13.2013 23.6658 12.8928 23.3506 12.6899ZM22.4813 10.2192C22.0089 10.2192 21.626 10.6021 21.626 11.0746C21.626 11.5473 22.0089 11.9302 22.4813 11.9302C22.954 11.9302 23.3369 11.5473 23.3369 11.0746C23.3369 10.6021 22.954 10.2192 22.4813 10.2192ZM24.3886 16.6461L21.592 20.2818C21.3064 20.6515 20.7184 20.4432 20.7179 19.9835L20.7165 16.6461H17.6735C17.4033 16.6461 17.1843 16.4271 17.1843 16.1569V7.81661C17.1843 7.54637 17.4033 7.32739 17.6735 7.32739H27.2894C27.5594 7.32739 27.7786 7.54637 27.7786 7.81661V16.1569C27.7786 16.4271 27.5594 16.6461 27.2894 16.6461H24.3886ZM21.6952 18.5475L23.7397 15.8895C23.8271 15.7558 23.978 15.6677 24.1495 15.6677H26.8V8.30583H18.1627V15.6677H21.2057C21.476 15.6677 21.6952 15.8867 21.6952 16.1569V18.5475ZM13.1964 11.8699L15.1792 15.4303C15.3259 15.6939 15.2003 16.0232 14.9194 16.1257L12.3339 17.0723C11.4703 18.1622 11.5797 19.6447 12.2265 20.8065C12.873 21.9668 14.0766 22.8399 15.4559 22.6807L17.6244 20.9801C17.8594 20.7954 18.2057 20.8634 18.3519 21.1266L20.3414 24.6985C20.4997 24.9607 20.3811 25.3046 20.0903 25.4102L17.3796 26.4023C17.3638 26.408 17.3475 26.413 17.3312 26.417C14.0038 27.4542 10.9688 25.1804 9.41588 22.3842C7.91634 19.6847 7.48122 15.6108 10.1827 13.4779L12.4528 11.6951C12.7006 11.5003 13.0627 11.5888 13.1964 11.8699ZM11.4585 16.6131L10.3688 14.6564C8.57399 16.669 9.05706 19.7295 10.2682 21.9103C11.4845 24.0999 13.812 26.1 16.4775 25.6247L15.3871 23.6667C13.6752 23.7845 12.1818 22.7305 11.3742 21.2803C10.5668 19.8306 10.4574 18.0058 11.4585 16.6131ZM14.0491 15.4053L12.6072 12.8163L11.1134 13.9889L12.2659 16.0582L14.0491 15.4053Z" fill="black"/>
</g>
<defs>
<clipPath id="clip0_305_1077">
<rect width="20" height="20" fill="white" transform="translate(8 7)"/>
</clipPath>
</defs>
</svg>
