<svg width="40" height="34" viewBox="0 0 40 34" fill="none" xmlns="http://www.w3.org/2000/svg">
<path d="M40 8.22736V29.7968C40 31.5746 38.5585 33.0161 36.7807 33.0161H3.21932C1.44145 33.0161 0 31.5746 0 29.7968V8.22736H40Z" fill="#F5F5F5"/>
<path d="M36.0409 14.2558H24.5318C24.1984 14.2558 23.9282 13.9856 23.9282 13.6522C23.9282 13.3188 24.1984 13.0486 24.5318 13.0486H36.0409C36.3743 13.0486 36.6445 13.3188 36.6445 13.6522C36.6445 13.9856 36.3743 14.2558 36.0409 14.2558Z" fill="#50758D"/>
<path d="M36.0409 17.4751H24.5318C24.1984 17.4751 23.9282 17.2049 23.9282 16.8715C23.9282 16.5381 24.1984 16.2679 24.5318 16.2679H36.0409C36.3743 16.2679 36.6445 16.5381 36.6445 16.8715C36.6445 17.2049 36.3743 17.4751 36.0409 17.4751Z" fill="#50758D"/>
<path d="M36.0409 20.6944H24.5318C24.1984 20.6944 23.9282 20.4242 23.9282 20.0908C23.9282 19.7574 24.1984 19.4872 24.5318 19.4872H36.0409C36.3743 19.4872 36.6445 19.7574 36.6445 20.0908C36.6445 20.4242 36.3743 20.6944 36.0409 20.6944Z" fill="#50758D"/>
<path d="M26.2776 29.4671H13.7223C12.4777 29.4671 11.4688 28.4582 11.4688 27.2136C11.4688 25.969 12.4777 24.9601 13.7223 24.9601H26.2776C27.5222 24.9601 28.5311 25.969 28.5311 27.2136C28.5311 28.4582 27.5222 29.4671 26.2776 29.4671Z" fill="#93DDB7"/>
<path d="M17.6106 14.7384V19.004C17.6106 20.3376 16.5297 21.4185 15.1961 21.4185H6.34295C6.06609 21.4185 5.8005 21.3718 5.55342 21.2857C4.60774 20.9597 3.92847 20.0607 3.92847 19.004V14.7384C3.92847 13.4056 5.00935 12.3239 6.34295 12.3239H15.1961C16.5297 12.3239 17.6106 13.4056 17.6106 14.7384Z" fill="#2EDFFC"/>
<path d="M14.0731 21.4185H6.34276C6.0659 21.4185 5.80031 21.3718 5.55322 21.2857L9.72304 14.4969L14.0731 21.4185Z" fill="#50758D"/>
<path d="M17.3192 20.1541C16.9691 20.901 16.3639 21.1175 16.3639 21.1175C16.3639 21.1175 16.1103 21.2479 15.9075 21.3122C15.885 21.3195 15.8633 21.3251 15.8431 21.3308C15.5349 21.4096 15.3305 21.4185 15.3305 21.4185H13.8938L12.116 18.3046L13.2299 17.0515L14.7132 15.3823L17.6105 18.843C17.6105 18.843 17.6822 19.3823 17.3192 20.1541Z" fill="#50758D"/>
<path d="M40 9.83703V8.22738L20 7.42255L0 8.22738V9.83703V29.7968C0 31.5747 1.44145 33.0161 3.21932 33.0161H4.82897C3.05111 33.0161 1.60966 31.5747 1.60966 29.7968V9.83703H40Z" fill="#E6E6E6"/>
<path d="M15.9075 21.3123C15.885 21.3195 15.8633 21.3252 15.8431 21.3308C15.5349 21.4097 15.3305 21.4185 15.3305 21.4185H13.8938L12.116 18.3046L13.2299 17.0515L15.9075 21.3123Z" fill="#2B597F"/>
<path d="M40 4.2032V8.22735H0V4.2032C0 2.42534 1.44145 0.983887 3.21932 0.983887H36.7807C38.5585 0.983887 40 2.42534 40 4.2032Z" fill="#50758D"/>
<path d="M38.189 4.60567C38.189 3.60719 37.3767 2.7948 36.3781 2.7948H19.2352C18.7214 2.7948 18.2572 3.01025 17.9273 3.3552C17.5437 3.73806 17.7238 3.55794 17.3409 3.9416C16.996 4.2715 16.7805 4.73564 16.7805 5.24953C16.7805 6.248 17.5928 7.06039 18.5914 7.06039H35.7342C36.2481 7.06039 36.7123 6.84494 37.0422 6.49999C37.4258 6.11713 37.2457 6.29725 37.6286 5.91359C37.9735 5.58369 38.189 5.11955 38.189 4.60567Z" fill="#2B597F"/>
<path d="M5.49289 4.58552C5.49289 3.58705 4.68057 2.77466 3.68202 2.77466C3.16814 2.77466 2.704 2.99011 2.3741 3.33506C1.99043 3.71792 2.17055 3.5378 1.7877 3.92146C1.44275 4.25136 1.22729 4.7155 1.22729 5.22939C1.22729 6.22786 2.03961 7.04025 3.03816 7.04025C3.55204 7.04025 4.01619 6.8248 4.34609 6.47985C4.72975 6.09699 4.54963 6.27711 4.93249 5.89345C5.27744 5.56355 5.49289 5.09941 5.49289 4.58552Z" fill="#2B597F"/>
<path d="M10.664 4.58552C10.664 3.58705 9.85172 2.77466 8.85317 2.77466C8.33928 2.77466 7.87514 2.99011 7.54524 3.33506C7.16158 3.71792 7.3417 3.5378 6.95884 3.92146C6.61389 4.25136 6.39844 4.7155 6.39844 5.22939C6.39844 6.22786 7.21075 7.04025 8.2093 7.04025C8.72319 7.04025 9.18733 6.8248 9.51723 6.47985C9.90089 6.09699 9.72077 6.27711 10.1036 5.89345C10.4486 5.56355 10.664 5.09941 10.664 4.58552Z" fill="#2B597F"/>
<path d="M15.8149 4.58552C15.8149 3.58705 15.0026 2.77466 14.004 2.77466C13.4902 2.77466 13.026 2.99011 12.6961 3.33506C12.3125 3.71792 12.4926 3.5378 12.1097 3.92146C11.7648 4.25136 11.5493 4.7155 11.5493 5.22939C11.5493 6.22786 12.3616 7.04025 13.3602 7.04025C13.8741 7.04025 14.3382 6.8248 14.6681 6.47985C15.0518 6.09699 14.8717 6.27711 15.2545 5.89345C15.5995 5.56355 15.8149 5.09941 15.8149 4.58552Z" fill="#2B597F"/>
<path d="M3.6822 6.39639C2.68365 6.39639 1.87134 5.58399 1.87134 4.58552C1.87134 3.58705 2.68365 2.77466 3.6822 2.77466C4.68075 2.77466 5.49307 3.58705 5.49307 4.58552C5.49307 5.58399 4.68075 6.39639 3.6822 6.39639Z" fill="#FD646F"/>
<path d="M8.8531 6.41647C7.85455 6.41647 7.04224 5.60407 7.04224 4.6056C7.04224 3.60713 7.85455 2.79474 8.8531 2.79474C9.85165 2.79474 10.664 3.60713 10.664 4.6056C10.664 5.60407 9.85165 6.41647 8.8531 6.41647Z" fill="#FFC682"/>
<path d="M14.004 6.41647C13.0054 6.41647 12.1931 5.60407 12.1931 4.6056C12.1931 3.60713 13.0054 2.79474 14.004 2.79474C15.0025 2.79474 15.8148 3.60713 15.8148 4.6056C15.8148 5.60407 15.0025 6.41647 14.004 6.41647Z" fill="#93DDB7"/>
<path d="M36.3783 6.41647H19.2354C18.2369 6.41647 17.4246 5.60407 17.4246 4.6056C17.4246 3.60713 18.2369 2.79474 19.2354 2.79474H36.3783C37.3768 2.79474 38.1891 3.60713 38.1891 4.6056C38.1891 5.60407 37.3768 6.41647 36.3783 6.41647Z" fill="#F5F5F5"/>
</svg>
