<svg width="60" height="60" viewBox="0 0 60 60" fill="none" xmlns="http://www.w3.org/2000/svg">
<rect width="60" height="60" rx="10" fill="#07A54E"/>
<g clip-path="url(#clip0_305_1000)">
<path d="M21.0535 29.4286H24.8035V32.2411C24.8035 32.4897 24.7047 32.7282 24.5289 32.904C24.3531 33.0798 24.1146 33.1786 23.866 33.1786H21.991C21.7423 33.1786 21.5039 33.0798 21.3281 32.904C21.1522 32.7282 21.0535 32.4897 21.0535 32.2411V29.4286Z" fill="white"/>
<path d="M36.0535 29.4286H39.8035V32.2411C39.8035 32.4897 39.7047 32.7282 39.5289 32.904C39.3531 33.0798 39.1146 33.1786 38.866 33.1786H36.991C36.7423 33.1786 36.5039 33.0798 36.3281 32.904C36.1522 32.7282 36.0535 32.4897 36.0535 32.2411V29.4286Z" fill="white"/>
<path d="M28.5535 18.1786H32.3035V20.9911C32.3035 21.2397 32.2047 21.4782 32.0289 21.654C31.8531 21.8298 31.6146 21.9286 31.366 21.9286H29.491C29.2423 21.9286 29.0039 21.8298 28.8281 21.654C28.6522 21.4782 28.5535 21.2397 28.5535 20.9911V18.1786Z" fill="white"/>
<path d="M44.491 39.7411H44.3222C44.4314 39.4405 44.4884 39.1234 44.491 38.8036V31.3036C44.491 30.5577 44.1947 29.8423 43.6672 29.3149C43.1398 28.7874 42.4244 28.4911 41.6785 28.4911H36.8222C36.9314 28.1905 36.9884 27.8734 36.991 27.5536V20.0536C36.991 19.3077 36.6947 18.5923 36.1672 18.0649C35.6398 17.5374 34.9244 17.2411 34.1785 17.2411H26.6785C25.9325 17.2411 25.2172 17.5374 24.6897 18.0649C24.1623 18.5923 23.866 19.3077 23.866 20.0536V27.5536C23.8685 27.8734 23.9256 28.1905 24.0347 28.4911H19.1785C18.4325 28.4911 17.7172 28.7874 17.1897 29.3149C16.6623 29.8423 16.366 30.5577 16.366 31.3036V38.8036C16.3685 39.1234 16.4256 39.4405 16.5347 39.7411H16.366C16.1173 39.7411 15.8789 39.8399 15.7031 40.0157C15.5272 40.1915 15.4285 40.4299 15.4285 40.6786C15.4285 40.9272 15.5272 41.1657 15.7031 41.3415C15.8789 41.5173 16.1173 41.6161 16.366 41.6161H44.491C44.7396 41.6161 44.9781 41.5173 45.1539 41.3415C45.3297 41.1657 45.4285 40.9272 45.4285 40.6786C45.4285 40.4299 45.3297 40.1915 45.1539 40.0157C44.9781 39.8399 44.7396 39.7411 44.491 39.7411ZM25.741 27.5536V20.0536C25.741 19.8049 25.8397 19.5665 26.0156 19.3907C26.1914 19.2149 26.4298 19.1161 26.6785 19.1161H34.1785C34.4271 19.1161 34.6656 19.2149 34.8414 19.3907C35.0172 19.5665 35.116 19.8049 35.116 20.0536V27.5536C35.116 27.8022 35.0172 28.0407 34.8414 28.2165C34.6656 28.3923 34.4271 28.4911 34.1785 28.4911H26.6785C26.4298 28.4911 26.1914 28.3923 26.0156 28.2165C25.8397 28.0407 25.741 27.8022 25.741 27.5536ZM31.5347 39.7411H29.3222C29.4314 39.4405 29.4884 39.1234 29.491 38.8036V31.3036C29.4884 30.9838 29.4314 30.6667 29.3222 30.3661H31.5347C31.4256 30.6667 31.3685 30.9838 31.366 31.3036V38.8036C31.3685 39.1234 31.4256 39.4405 31.5347 39.7411ZM19.1785 39.7411C18.9298 39.7411 18.6914 39.6423 18.5156 39.4665C18.3397 39.2907 18.241 39.0522 18.241 38.8036V31.3036C18.241 31.0549 18.3397 30.8165 18.5156 30.6407C18.6914 30.4649 18.9298 30.3661 19.1785 30.3661H26.6785C26.9271 30.3661 27.1656 30.4649 27.3414 30.6407C27.5172 30.8165 27.616 31.0549 27.616 31.3036V38.8036C27.616 39.0522 27.5172 39.2907 27.3414 39.4665C27.1656 39.6423 26.9271 39.7411 26.6785 39.7411H19.1785ZM34.1785 39.7411C33.9298 39.7411 33.6914 39.6423 33.5156 39.4665C33.3397 39.2907 33.241 39.0522 33.241 38.8036V31.3036C33.241 31.0549 33.3397 30.8165 33.5156 30.6407C33.6914 30.4649 33.9298 30.3661 34.1785 30.3661H41.6785C41.9271 30.3661 42.1656 30.4649 42.3414 30.6407C42.5172 30.8165 42.616 31.0549 42.616 31.3036V38.8036C42.616 39.0522 42.5172 39.2907 42.3414 39.4665C42.1656 39.6423 41.9271 39.7411 41.6785 39.7411H34.1785Z" fill="white"/>
<path d="M21.991 37.8661H21.0535C20.8048 37.8661 20.5664 37.7673 20.3906 37.5915C20.2147 37.4157 20.116 37.1772 20.116 36.9286C20.116 36.6799 20.2147 36.4415 20.3906 36.2657C20.5664 36.0899 20.8048 35.9911 21.0535 35.9911H21.991C22.2396 35.9911 22.4781 36.0899 22.6539 36.2657C22.8297 36.4415 22.9285 36.6799 22.9285 36.9286C22.9285 37.1772 22.8297 37.4157 22.6539 37.5915C22.4781 37.7673 22.2396 37.8661 21.991 37.8661Z" fill="white"/>
<path d="M36.991 37.8661H36.0535C35.8048 37.8661 35.5664 37.7673 35.3906 37.5915C35.2147 37.4157 35.116 37.1772 35.116 36.9286C35.116 36.6799 35.2147 36.4415 35.3906 36.2657C35.5664 36.0899 35.8048 35.9911 36.0535 35.9911H36.991C37.2396 35.9911 37.4781 36.0899 37.6539 36.2657C37.8297 36.4415 37.9285 36.6799 37.9285 36.9286C37.9285 37.1772 37.8297 37.4157 37.6539 37.5915C37.4781 37.7673 37.2396 37.8661 36.991 37.8661Z" fill="white"/>
<path d="M29.491 26.6161H28.5535C28.3048 26.6161 28.0664 26.5173 27.8906 26.3415C27.7147 26.1657 27.616 25.9272 27.616 25.6786C27.616 25.4299 27.7147 25.1915 27.8906 25.0157C28.0664 24.8399 28.3048 24.7411 28.5535 24.7411H29.491C29.7396 24.7411 29.9781 24.8399 30.1539 25.0157C30.3297 25.1915 30.4285 25.4299 30.4285 25.6786C30.4285 25.9272 30.3297 26.1657 30.1539 26.3415C29.9781 26.5173 29.7396 26.6161 29.491 26.6161Z" fill="white"/>
</g>
<defs>
<clipPath id="clip0_305_1000">
<rect width="30" height="30" fill="white" transform="translate(15.4285 14.4286)"/>
</clipPath>
</defs>
</svg>
