<svg width="50" height="36" viewBox="0 0 50 36" fill="none" xmlns="http://www.w3.org/2000/svg">
<path d="M0 25.0156C0 28.3295 0.639258 31.5501 1.9001 34.5881L2.46162 35.941L12.3887 31.8214L11.8261 30.468C11.0693 28.6474 10.7057 26.7159 10.7451 24.7272C10.7941 22.2567 11.4803 19.8784 12.7188 17.7876L8.85039 13.9597L3.44697 12.3309C1.1998 16.1343 0 20.4832 0 25.0156Z" fill="#7BC5B0"/>
<path d="M42.6586 7.28662C37.9491 2.59619 31.681 0.015625 25.0012 0.015625C25.0008 0.015625 25.0004 0.015625 25 0.015625L24.0234 5.06641L25 10.7585C28.7276 10.7581 32.2395 12.1807 34.9284 14.793C35.858 15.6961 36.6477 16.7014 37.2887 17.7834L43.5212 15.6667L46.5682 12.3222C45.4979 10.5043 44.1902 8.81211 42.6586 7.28662Z" fill="#FF7A63"/>
<path d="M24.9332 0.0157233C18.2694 0.0331062 12.0072 2.64131 7.30029 7.35986C5.79346 8.87041 4.50459 10.5404 3.44678 12.3309L12.7186 17.7876C13.3147 16.7812 14.0382 15.841 14.8814 14.9899C17.4765 12.3705 20.9204 10.8697 24.5788 10.764C24.7194 10.7599 24.8598 10.7585 24.9999 10.7585V0.015625C24.9777 0.015625 24.9554 0.0156257 24.9332 0.0157233Z" fill="#FDD278"/>
<path d="M46.5681 12.3221L37.2886 17.7833C38.5728 19.951 39.2578 22.4276 39.2578 25.0156C39.2578 26.9059 38.8922 28.7426 38.1712 30.4748L37.6101 31.8229L47.5176 35.9844L48.0829 34.629C49.3598 31.5677 50.0048 28.3211 50 24.9794C49.9936 20.449 48.7991 16.1113 46.5681 12.3221Z" fill="#FF6058"/>
<path d="M25 14.3075L24.0234 24.7634L25 35.7236C30.9044 35.7236 35.708 30.9201 35.708 25.0156C35.708 19.1111 30.9044 14.3075 25 14.3075Z" fill="#B9B9BE"/>
<path d="M14.292 25.0156C14.292 30.9201 19.0956 35.7236 25 35.7236V14.3075C19.0955 14.3075 14.292 19.1111 14.292 25.0156Z" fill="#D3D3D8"/>
<path d="M26.1411 20.355C25.7587 20.2578 25.3764 20.2088 25 20.2031L24.0234 24.5911L25 29.8287C25.3764 29.8229 25.7587 29.7741 26.1411 29.6768L44.4635 25.0159L26.1411 20.355Z" fill="#474F54"/>
<path d="M20.0518 25.0156C20.0518 27.7651 22.4312 29.8684 25.0001 29.8285V20.2028C22.4313 20.1628 20.0518 22.3142 20.0518 25.0156Z" fill="#5A5F64"/>
</svg>
