<svg width="16" height="16" viewBox="0 0 16 16" fill="none" xmlns="http://www.w3.org/2000/svg">
<path d="M9.99994 13.2533C10.0266 13.4533 9.95994 13.6667 9.80661 13.8067C9.74495 13.8685 9.67168 13.9175 9.59101 13.9509C9.51035 13.9844 9.42394 14.0016 9.33661 14.0016C9.24928 14.0016 9.16281 13.9844 9.08221 13.9509C9.00154 13.9175 8.92828 13.8685 8.86661 13.8067L6.19327 11.1333C6.12056 11.0623 6.06527 10.9753 6.03174 10.8793C5.9982 10.7833 5.98731 10.6809 5.99994 10.58V7.16667L2.80661 3.08C2.69835 2.94102 2.64949 2.76484 2.67073 2.58995C2.69197 2.41507 2.78156 2.2557 2.91994 2.14667C3.04661 2.05333 3.18661 2 3.33327 2H12.6666C12.8133 2 12.9533 2.05333 13.0799 2.14667C13.2183 2.2557 13.3079 2.41507 13.3291 2.58995C13.3504 2.76484 13.3015 2.94102 13.1933 3.08L9.99994 7.16667V13.2533ZM4.69327 3.33333L7.33328 6.70667V10.3867L8.66661 11.72V6.7L11.3066 3.33333H4.69327Z" fill="#0C1E51"/>
</svg>
