<svg width="24" height="24" viewBox="0 0 24 24" fill="none" xmlns="http://www.w3.org/2000/svg">
<g clip-path="url(#clip0_1_190)">
<mask id="mask0_1_190" style="mask-type:luminance" maskUnits="userSpaceOnUse" x="0" y="0" width="24" height="24">
<path d="M24 0H0V24H24V0Z" fill="white"/>
</mask>
<g mask="url(#mask0_1_190)">
<path d="M11.9964 23.9999L0 16.7957L11.9964 9.59991L24 16.7957L11.9964 23.9999Z" fill="#EFEFEF"/>
<path d="M13.9187 19.3451L15.8339 20.4737L11.9963 22.7313L8.15889 20.4737L10.0811 19.3451L9.00075 18.7106L5.99812 20.4737L11.9963 24L17.9946 20.4737L14.999 18.7106L13.9187 19.3451Z" fill="#3F4A5A"/>
<path d="M12 0C7.49546 0 3.84 3.36972 3.84 7.52215C3.84 9.25232 4.52819 10.8095 5.52919 12.1113L12 20.4737L18.4708 12.1113C19.4807 10.8095 20.16 9.25232 20.16 7.52215C20.1689 3.36972 16.5134 0 12 0Z" fill="#EE3131"/>
<path d="M17.0587 7.52233C17.0587 10.1011 14.7975 12.1856 12.009 12.1856C9.22051 12.1856 6.9593 10.1011 6.9593 7.52233C6.9593 4.94355 9.22051 2.86734 12.009 2.86734C14.7975 2.86734 17.0587 4.95179 17.0587 7.52233Z" fill="white"/>
</g>
</g>
<defs>
<clipPath id="clip0_1_190">
<rect width="24" height="24" fill="white"/>
</clipPath>
</defs>
</svg>
