<svg width="55" height="55" viewBox="0 0 55 55" fill="none" xmlns="http://www.w3.org/2000/svg">
<path d="M17.1875 41.25V7.82258L15.7999 6.89331C9.90002 9.26175 5.72919 15.0241 5.72919 21.7708V33.2291C5.72919 42.0887 12.9113 49.2708 21.7709 49.2708H33.2292C38.6398 49.2708 43.4076 46.5804 46.3112 42.4749V41.25H17.1875Z" fill="#2962FF"/>
<path d="M33.2292 5.72913H21.7709C19.6568 5.72913 17.6447 6.1485 15.7965 6.891C11.9774 10.5989 9.16669 16.6466 9.16669 21.7708C9.16669 29.5292 10.2392 34.0713 13.42 38.508C13.6675 38.8529 13.8291 39.2562 13.8509 39.679C13.9001 40.6358 13.703 42.3889 11.9786 43.9667C11.7929 44.1363 11.911 44.4468 12.1619 44.4571C13.2413 44.5041 15.4195 44.4411 17.6585 43.4522C18.2967 43.1704 19.0231 43.2196 19.6396 43.5474C23.4357 45.5629 27.8816 45.8333 32.0834 45.8333C37.4413 45.8333 42.7843 44.6416 46.3112 42.492C48.1686 39.8738 49.2709 36.6827 49.2709 33.2291V21.7708C49.2709 12.9112 42.0888 5.72913 33.2292 5.72913Z" fill="white"/>
<path d="M42.1094 30.9375C39.7409 30.9375 37.8125 29.0091 37.8125 26.6406C37.8125 24.2722 39.7409 22.3438 42.1094 22.3438C44.4778 22.3438 46.4062 24.2722 46.4062 26.6406C46.4062 29.0091 44.4778 30.9375 42.1094 30.9375ZM42.1094 24.0625C40.6885 24.0625 39.5312 25.2198 39.5312 26.6406C39.5312 28.0615 40.6885 29.2187 42.1094 29.2187C43.5302 29.2187 44.6875 28.0615 44.6875 26.6406C44.6875 25.2198 43.5302 24.0625 42.1094 24.0625Z" fill="#2962FF"/>
<path d="M36.0938 30.9375H34.9479C34.6317 30.9375 34.375 30.6808 34.375 30.3646V20.625H36.0938V30.9375Z" fill="#2962FF"/>
<path d="M30.9375 22.6302V23.2249C30.2168 22.6795 29.3299 22.3438 28.3594 22.3438C25.9909 22.3438 24.0625 24.2722 24.0625 26.6406C24.0625 29.0091 25.9909 30.9375 28.3594 30.9375C29.3299 30.9375 30.2168 30.6018 30.9375 30.0564V30.3646C30.9375 30.6808 31.1942 30.9375 31.5104 30.9375H32.6562V22.6302H30.9375ZM28.3594 29.2187C26.9385 29.2187 25.7812 28.0615 25.7812 26.6406C25.7812 25.2198 26.9385 24.0625 28.3594 24.0625C29.7802 24.0625 30.9375 25.2198 30.9375 26.6406C30.9375 28.0615 29.7802 29.2187 28.3594 29.2187Z" fill="#2962FF"/>
<path d="M24.349 20.625H15.1823V22.3438H21.2793L14.8958 29.7917H14.9256C14.7389 30.0334 14.6094 30.3222 14.6094 30.651V30.9375H23.2031C23.5194 30.9375 23.776 30.6808 23.776 30.3646V29.2188H17.6791L24.0625 21.7708H24.0327C24.2195 21.5291 24.349 21.2403 24.349 20.9115V20.625Z" fill="#2962FF"/>
</svg>
