<svg width="55" height="55" viewBox="0 0 55 55" fill="none" xmlns="http://www.w3.org/2000/svg">
<path d="M27.5 4.58337C14.8431 4.58337 4.58331 14.8432 4.58331 27.5C4.58331 40.1569 14.8431 50.4167 27.5 50.4167C40.1569 50.4167 50.4166 40.1569 50.4166 27.5C50.4166 14.8432 40.1569 4.58337 27.5 4.58337Z" fill="url(#paint0_linear_1_1589)"/>
<path d="M30.6018 33.5741H36.5326L37.4642 27.5493H30.6018V24.2561C30.6018 21.7536 31.4199 19.5342 33.7609 19.5342H37.5226V14.2771C36.8615 14.1877 35.4636 13.9929 32.8224 13.9929C27.3064 13.9929 24.0728 16.9056 24.0728 23.5423V27.5504H18.4021V33.5752H24.0717V50.1348C25.1946 50.3021 26.3324 50.4167 27.5 50.4167C28.5553 50.4167 29.5854 50.3204 30.6018 50.1829V33.5741Z" fill="white"/>
<defs>
<linearGradient id="paint0_linear_1_1589" x1="11.4503" y1="11.4504" x2="46.538" y2="46.5381" gradientUnits="userSpaceOnUse">
<stop stop-color="#2AA4F4"/>
<stop offset="1" stop-color="#007AD9"/>
</linearGradient>
</defs>
</svg>
