<svg width="24" height="24" viewBox="0 0 24 24" fill="none" xmlns="http://www.w3.org/2000/svg">
<path d="M16.9999 9.17005C16.8126 8.98379 16.5592 8.87924 16.2949 8.87924C16.0308 8.87924 15.7773 8.98379 15.5899 9.17005L12 12.71L8.46001 9.17005C8.27265 8.98379 8.01919 8.87924 7.75501 8.87924C7.49082 8.87924 7.23736 8.98379 7.05001 9.17005C6.95628 9.263 6.88188 9.37361 6.83112 9.49547C6.78034 9.61732 6.75421 9.74803 6.75421 9.88004C6.75421 10.0121 6.78034 10.1428 6.83112 10.2646C6.88188 10.3865 6.95628 10.4971 7.05001 10.59L11.29 14.83C11.383 14.9238 11.4936 14.9982 11.6154 15.0489C11.7373 15.0998 11.868 15.1259 12 15.1259C12.132 15.1259 12.2627 15.0998 12.3846 15.0489C12.5064 14.9982 12.617 14.9238 12.71 14.83L16.9999 10.59C17.0937 10.4971 17.1681 10.3865 17.2189 10.2646C17.2696 10.1428 17.2957 10.0121 17.2957 9.88004C17.2957 9.74803 17.2696 9.61732 17.2189 9.49547C17.1681 9.37361 17.0937 9.263 16.9999 9.17005Z" fill="#1D6449"/>
</svg>
