<svg width="118" height="118" viewBox="0 0 118 118" fill="none" xmlns="http://www.w3.org/2000/svg">
<g clip-path="url(#clip0_1_1124)">
<path d="M118 0H0V118H118V0Z" fill="white"/>
<path d="M47.8378 12.7568H44.6487V15.946H47.8378V12.7568Z" fill="black"/>
<path d="M51.027 12.7568H47.8378V15.946H51.027V12.7568Z" fill="black"/>
<path d="M60.5946 12.7568H57.4054V15.946H60.5946V12.7568Z" fill="black"/>
<path d="M63.7838 12.7568H60.5946V15.946H63.7838V12.7568Z" fill="black"/>
<path d="M73.3514 12.7568H70.1622V15.946H73.3514V12.7568Z" fill="black"/>
<path d="M76.5405 12.7568H73.3513V15.946H76.5405V12.7568Z" fill="black"/>
<path d="M79.7297 12.7568H76.5405V15.946H79.7297V12.7568Z" fill="black"/>
<path d="M44.6487 15.946H41.4595V19.1352H44.6487V15.946Z" fill="black"/>
<path d="M54.2162 15.946H51.027V19.1352H54.2162V15.946Z" fill="black"/>
<path d="M57.4054 15.946H54.2162V19.1352H57.4054V15.946Z" fill="black"/>
<path d="M60.5946 15.946H57.4054V19.1352H60.5946V15.946Z" fill="black"/>
<path d="M63.7838 15.946H60.5946V19.1352H63.7838V15.946Z" fill="black"/>
<path d="M70.1622 15.946H66.973V19.1352H70.1622V15.946Z" fill="black"/>
<path d="M76.5405 15.946H73.3513V19.1352H76.5405V15.946Z" fill="black"/>
<path d="M41.4595 19.1353H38.2703V22.3244H41.4595V19.1353Z" fill="black"/>
<path d="M51.027 19.1353H47.8378V22.3244H51.027V19.1353Z" fill="black"/>
<path d="M66.973 19.1353H63.7838V22.3244H66.973V19.1353Z" fill="black"/>
<path d="M76.5405 19.1353H73.3513V22.3244H76.5405V19.1353Z" fill="black"/>
<path d="M41.4595 22.3242H38.2703V25.5134H41.4595V22.3242Z" fill="black"/>
<path d="M44.6487 22.3242H41.4595V25.5134H44.6487V22.3242Z" fill="black"/>
<path d="M54.2162 22.3242H51.027V25.5134H54.2162V22.3242Z" fill="black"/>
<path d="M60.5946 22.3242H57.4054V25.5134H60.5946V22.3242Z" fill="black"/>
<path d="M63.7838 22.3242H60.5946V25.5134H63.7838V22.3242Z" fill="black"/>
<path d="M66.973 22.3242H63.7838V25.5134H66.973V22.3242Z" fill="black"/>
<path d="M70.1622 22.3242H66.973V25.5134H70.1622V22.3242Z" fill="black"/>
<path d="M41.4595 25.5134H38.2703V28.7026H41.4595V25.5134Z" fill="black"/>
<path d="M51.027 25.5134H47.8378V28.7026H51.027V25.5134Z" fill="black"/>
<path d="M66.973 25.5134H63.7838V28.7026H66.973V25.5134Z" fill="black"/>
<path d="M73.3514 25.5134H70.1622V28.7026H73.3514V25.5134Z" fill="black"/>
<path d="M76.5405 25.5134H73.3513V28.7026H76.5405V25.5134Z" fill="black"/>
<path d="M79.7297 25.5134H76.5405V28.7026H79.7297V25.5134Z" fill="black"/>
<path d="M41.4595 28.7026H38.2703V31.8918H41.4595V28.7026Z" fill="black"/>
<path d="M44.6487 28.7026H41.4595V31.8918H44.6487V28.7026Z" fill="black"/>
<path d="M51.027 28.7026H47.8378V31.8918H51.027V28.7026Z" fill="black"/>
<path d="M54.2162 28.7026H51.027V31.8918H54.2162V28.7026Z" fill="black"/>
<path d="M70.1622 28.7026H66.973V31.8918H70.1622V28.7026Z" fill="black"/>
<path d="M76.5405 28.7026H73.3513V31.8918H76.5405V28.7026Z" fill="black"/>
<path d="M41.4595 31.8918H38.2703V35.081H41.4595V31.8918Z" fill="black"/>
<path d="M47.8378 31.8918H44.6487V35.081H47.8378V31.8918Z" fill="black"/>
<path d="M54.2162 31.8918H51.027V35.081H54.2162V31.8918Z" fill="black"/>
<path d="M60.5946 31.8918H57.4054V35.081H60.5946V31.8918Z" fill="black"/>
<path d="M66.973 31.8918H63.7838V35.081H66.973V31.8918Z" fill="black"/>
<path d="M73.3514 31.8918H70.1622V35.081H73.3514V31.8918Z" fill="black"/>
<path d="M79.7297 31.8918H76.5405V35.081H79.7297V31.8918Z" fill="black"/>
<path d="M41.4595 35.0811H38.2703V38.2702H41.4595V35.0811Z" fill="black"/>
<path d="M44.6487 35.0811H41.4595V38.2702H44.6487V35.0811Z" fill="black"/>
<path d="M51.027 35.0811H47.8378V38.2702H51.027V35.0811Z" fill="black"/>
<path d="M66.973 35.0811H63.7838V38.2702H66.973V35.0811Z" fill="black"/>
<path d="M70.1622 35.0811H66.973V38.2702H70.1622V35.0811Z" fill="black"/>
<path d="M73.3514 35.0811H70.1622V38.2702H73.3514V35.0811Z" fill="black"/>
<path d="M76.5405 35.0811H73.3513V38.2702H76.5405V35.0811Z" fill="black"/>
<path d="M79.7297 35.0811H76.5405V38.2702H79.7297V35.0811Z" fill="black"/>
<path d="M15.9459 38.2703H12.7567V41.4595H15.9459V38.2703Z" fill="black"/>
<path d="M22.3243 38.2703H19.1351V41.4595H22.3243V38.2703Z" fill="black"/>
<path d="M25.5135 38.2703H22.3243V41.4595H25.5135V38.2703Z" fill="black"/>
<path d="M28.7027 38.2703H25.5135V41.4595H28.7027V38.2703Z" fill="black"/>
<path d="M31.8919 38.2703H28.7027V41.4595H31.8919V38.2703Z" fill="black"/>
<path d="M35.0811 38.2703H31.8919V41.4595H35.0811V38.2703Z" fill="black"/>
<path d="M44.6487 38.2703H41.4595V41.4595H44.6487V38.2703Z" fill="black"/>
<path d="M47.8378 38.2703H44.6487V41.4595H47.8378V38.2703Z" fill="black"/>
<path d="M54.2162 38.2703H51.027V41.4595H54.2162V38.2703Z" fill="black"/>
<path d="M63.7838 38.2703H60.5946V41.4595H63.7838V38.2703Z" fill="black"/>
<path d="M70.1622 38.2703H66.973V41.4595H70.1622V38.2703Z" fill="black"/>
<path d="M79.7297 38.2703H76.5405V41.4595H79.7297V38.2703Z" fill="black"/>
<path d="M86.1081 38.2703H82.9189V41.4595H86.1081V38.2703Z" fill="black"/>
<path d="M89.2973 38.2703H86.1081V41.4595H89.2973V38.2703Z" fill="black"/>
<path d="M92.4865 38.2703H89.2973V41.4595H92.4865V38.2703Z" fill="black"/>
<path d="M95.6757 38.2703H92.4865V41.4595H95.6757V38.2703Z" fill="black"/>
<path d="M98.8648 38.2703H95.6757V41.4595H98.8648V38.2703Z" fill="black"/>
<path d="M15.9459 41.4595H12.7567V44.6487H15.9459V41.4595Z" fill="black"/>
<path d="M19.1351 41.4595H15.946V44.6487H19.1351V41.4595Z" fill="black"/>
<path d="M28.7027 41.4595H25.5135V44.6487H28.7027V41.4595Z" fill="black"/>
<path d="M38.2703 41.4595H35.0811V44.6487H38.2703V41.4595Z" fill="black"/>
<path d="M41.4595 41.4595H38.2703V44.6487H41.4595V41.4595Z" fill="black"/>
<path d="M44.6487 41.4595H41.4595V44.6487H44.6487V41.4595Z" fill="black"/>
<path d="M47.8378 41.4595H44.6487V44.6487H47.8378V41.4595Z" fill="black"/>
<path d="M51.027 41.4595H47.8378V44.6487H51.027V41.4595Z" fill="black"/>
<path d="M57.4054 41.4595H54.2162V44.6487H57.4054V41.4595Z" fill="black"/>
<path d="M63.7838 41.4595H60.5946V44.6487H63.7838V41.4595Z" fill="black"/>
<path d="M66.973 41.4595H63.7838V44.6487H66.973V41.4595Z" fill="black"/>
<path d="M73.3514 41.4595H70.1622V44.6487H73.3514V41.4595Z" fill="black"/>
<path d="M76.5405 41.4595H73.3513V44.6487H76.5405V41.4595Z" fill="black"/>
<path d="M79.7297 41.4595H76.5405V44.6487H79.7297V41.4595Z" fill="black"/>
<path d="M92.4865 41.4595H89.2973V44.6487H92.4865V41.4595Z" fill="black"/>
<path d="M95.6757 41.4595H92.4865V44.6487H95.6757V41.4595Z" fill="black"/>
<path d="M102.054 41.4595H98.8649V44.6487H102.054V41.4595Z" fill="black"/>
<path d="M22.3243 44.6487H19.1351V47.8379H22.3243V44.6487Z" fill="black"/>
<path d="M25.5135 44.6487H22.3243V47.8379H25.5135V44.6487Z" fill="black"/>
<path d="M35.0811 44.6487H31.8919V47.8379H35.0811V44.6487Z" fill="black"/>
<path d="M41.4595 44.6487H38.2703V47.8379H41.4595V44.6487Z" fill="black"/>
<path d="M44.6487 44.6487H41.4595V47.8379H44.6487V44.6487Z" fill="black"/>
<path d="M47.8378 44.6487H44.6487V47.8379H47.8378V44.6487Z" fill="black"/>
<path d="M54.2162 44.6487H51.027V47.8379H54.2162V44.6487Z" fill="black"/>
<path d="M57.4054 44.6487H54.2162V47.8379H57.4054V44.6487Z" fill="black"/>
<path d="M60.5946 44.6487H57.4054V47.8379H60.5946V44.6487Z" fill="black"/>
<path d="M70.1622 44.6487H66.973V47.8379H70.1622V44.6487Z" fill="black"/>
<path d="M73.3514 44.6487H70.1622V47.8379H73.3514V44.6487Z" fill="black"/>
<path d="M76.5405 44.6487H73.3513V47.8379H76.5405V44.6487Z" fill="black"/>
<path d="M95.6757 44.6487H92.4865V47.8379H95.6757V44.6487Z" fill="black"/>
<path d="M98.8648 44.6487H95.6757V47.8379H98.8648V44.6487Z" fill="black"/>
<path d="M28.7027 47.8379H25.5135V51.0271H28.7027V47.8379Z" fill="black"/>
<path d="M38.2703 47.8379H35.0811V51.0271H38.2703V47.8379Z" fill="black"/>
<path d="M41.4595 47.8379H38.2703V51.0271H41.4595V47.8379Z" fill="black"/>
<path d="M47.8378 47.8379H44.6487V51.0271H47.8378V47.8379Z" fill="black"/>
<path d="M57.4054 47.8379H54.2162V51.0271H57.4054V47.8379Z" fill="black"/>
<path d="M66.973 47.8379H63.7838V51.0271H66.973V47.8379Z" fill="black"/>
<path d="M70.1622 47.8379H66.973V51.0271H70.1622V47.8379Z" fill="black"/>
<path d="M73.3514 47.8379H70.1622V51.0271H73.3514V47.8379Z" fill="black"/>
<path d="M76.5405 47.8379H73.3513V51.0271H76.5405V47.8379Z" fill="black"/>
<path d="M79.7297 47.8379H76.5405V51.0271H79.7297V47.8379Z" fill="black"/>
<path d="M86.1081 47.8379H82.9189V51.0271H86.1081V47.8379Z" fill="black"/>
<path d="M89.2973 47.8379H86.1081V51.0271H89.2973V47.8379Z" fill="black"/>
<path d="M92.4865 47.8379H89.2973V51.0271H92.4865V47.8379Z" fill="black"/>
<path d="M95.6757 47.8379H92.4865V51.0271H95.6757V47.8379Z" fill="black"/>
<path d="M105.243 47.8379H102.054V51.0271H105.243V47.8379Z" fill="black"/>
<path d="M15.9459 51.0271H12.7567V54.2163H15.9459V51.0271Z" fill="black"/>
<path d="M19.1351 51.0271H15.946V54.2163H19.1351V51.0271Z" fill="black"/>
<path d="M31.8919 51.0271H28.7027V54.2163H31.8919V51.0271Z" fill="black"/>
<path d="M35.0811 51.0271H31.8919V54.2163H35.0811V51.0271Z" fill="black"/>
<path d="M38.2703 51.0271H35.0811V54.2163H38.2703V51.0271Z" fill="black"/>
<path d="M41.4595 51.0271H38.2703V54.2163H41.4595V51.0271Z" fill="black"/>
<path d="M44.6487 51.0271H41.4595V54.2163H44.6487V51.0271Z" fill="black"/>
<path d="M47.8378 51.0271H44.6487V54.2163H47.8378V51.0271Z" fill="black"/>
<path d="M54.2162 51.0271H51.027V54.2163H54.2162V51.0271Z" fill="black"/>
<path d="M60.5946 51.0271H57.4054V54.2163H60.5946V51.0271Z" fill="black"/>
<path d="M63.7838 51.0271H60.5946V54.2163H63.7838V51.0271Z" fill="black"/>
<path d="M70.1622 51.0271H66.973V54.2163H70.1622V51.0271Z" fill="black"/>
<path d="M79.7297 51.0271H76.5405V54.2163H79.7297V51.0271Z" fill="black"/>
<path d="M82.9189 51.0271H79.7297V54.2163H82.9189V51.0271Z" fill="black"/>
<path d="M86.1081 51.0271H82.9189V54.2163H86.1081V51.0271Z" fill="black"/>
<path d="M92.4865 51.0271H89.2973V54.2163H92.4865V51.0271Z" fill="black"/>
<path d="M15.9459 54.2163H12.7567V57.4055H15.9459V54.2163Z" fill="black"/>
<path d="M19.1351 54.2163H15.946V57.4055H19.1351V54.2163Z" fill="black"/>
<path d="M22.3243 54.2163H19.1351V57.4055H22.3243V54.2163Z" fill="black"/>
<path d="M44.6487 54.2163H41.4595V57.4055H44.6487V54.2163Z" fill="black"/>
<path d="M51.027 54.2163H47.8378V57.4055H51.027V54.2163Z" fill="black"/>
<path d="M54.2162 54.2163H51.027V57.4055H54.2162V54.2163Z" fill="black"/>
<path d="M66.973 54.2163H63.7838V57.4055H66.973V54.2163Z" fill="black"/>
<path d="M76.5405 54.2163H73.3513V57.4055H76.5405V54.2163Z" fill="black"/>
<path d="M82.9189 54.2163H79.7297V57.4055H82.9189V54.2163Z" fill="black"/>
<path d="M95.6757 54.2163H92.4865V57.4055H95.6757V54.2163Z" fill="black"/>
<path d="M102.054 54.2163H98.8649V57.4055H102.054V54.2163Z" fill="black"/>
<path d="M19.1351 57.4055H15.946V60.5947H19.1351V57.4055Z" fill="black"/>
<path d="M22.3243 57.4055H19.1351V60.5947H22.3243V57.4055Z" fill="black"/>
<path d="M25.5135 57.4055H22.3243V60.5947H25.5135V57.4055Z" fill="black"/>
<path d="M28.7027 57.4055H25.5135V60.5947H28.7027V57.4055Z" fill="black"/>
<path d="M31.8919 57.4055H28.7027V60.5947H31.8919V57.4055Z" fill="black"/>
<path d="M35.0811 57.4055H31.8919V60.5947H35.0811V57.4055Z" fill="black"/>
<path d="M38.2703 57.4055H35.0811V60.5947H38.2703V57.4055Z" fill="black"/>
<path d="M41.4595 57.4055H38.2703V60.5947H41.4595V57.4055Z" fill="black"/>
<path d="M51.027 57.4055H47.8378V60.5947H51.027V57.4055Z" fill="black"/>
<path d="M70.1622 57.4055H66.973V60.5947H70.1622V57.4055Z" fill="black"/>
<path d="M79.7297 57.4055H76.5405V60.5947H79.7297V57.4055Z" fill="black"/>
<path d="M95.6757 57.4055H92.4865V60.5947H95.6757V57.4055Z" fill="black"/>
<path d="M98.8648 57.4055H95.6757V60.5947H98.8648V57.4055Z" fill="black"/>
<path d="M102.054 57.4055H98.8649V60.5947H102.054V57.4055Z" fill="black"/>
<path d="M105.243 57.4055H102.054V60.5947H105.243V57.4055Z" fill="black"/>
<path d="M15.9459 60.5945H12.7567V63.7837H15.9459V60.5945Z" fill="black"/>
<path d="M19.1351 60.5945H15.946V63.7837H19.1351V60.5945Z" fill="black"/>
<path d="M28.7027 60.5945H25.5135V63.7837H28.7027V60.5945Z" fill="black"/>
<path d="M38.2703 60.5945H35.0811V63.7837H38.2703V60.5945Z" fill="black"/>
<path d="M44.6487 60.5945H41.4595V63.7837H44.6487V60.5945Z" fill="black"/>
<path d="M60.5946 60.5945H57.4054V63.7837H60.5946V60.5945Z" fill="black"/>
<path d="M66.973 60.5945H63.7838V63.7837H66.973V60.5945Z" fill="black"/>
<path d="M73.3514 60.5945H70.1622V63.7837H73.3514V60.5945Z" fill="black"/>
<path d="M76.5405 60.5945H73.3513V63.7837H76.5405V60.5945Z" fill="black"/>
<path d="M79.7297 60.5945H76.5405V63.7837H79.7297V60.5945Z" fill="black"/>
<path d="M82.9189 60.5945H79.7297V63.7837H82.9189V60.5945Z" fill="black"/>
<path d="M86.1081 60.5945H82.9189V63.7837H86.1081V60.5945Z" fill="black"/>
<path d="M89.2973 60.5945H86.1081V63.7837H89.2973V60.5945Z" fill="black"/>
<path d="M92.4865 60.5945H89.2973V63.7837H92.4865V60.5945Z" fill="black"/>
<path d="M102.054 60.5945H98.8649V63.7837H102.054V60.5945Z" fill="black"/>
<path d="M105.243 60.5945H102.054V63.7837H105.243V60.5945Z" fill="black"/>
<path d="M19.1351 63.7837H15.946V66.9729H19.1351V63.7837Z" fill="black"/>
<path d="M22.3243 63.7837H19.1351V66.9729H22.3243V63.7837Z" fill="black"/>
<path d="M25.5135 63.7837H22.3243V66.9729H25.5135V63.7837Z" fill="black"/>
<path d="M31.8919 63.7837H28.7027V66.9729H31.8919V63.7837Z" fill="black"/>
<path d="M35.0811 63.7837H31.8919V66.9729H35.0811V63.7837Z" fill="black"/>
<path d="M44.6487 63.7837H41.4595V66.9729H44.6487V63.7837Z" fill="black"/>
<path d="M63.7838 63.7837H60.5946V66.9729H63.7838V63.7837Z" fill="black"/>
<path d="M66.973 63.7837H63.7838V66.9729H66.973V63.7837Z" fill="black"/>
<path d="M73.3514 63.7837H70.1622V66.9729H73.3514V63.7837Z" fill="black"/>
<path d="M79.7297 63.7837H76.5405V66.9729H79.7297V63.7837Z" fill="black"/>
<path d="M15.9459 66.9729H12.7567V70.1621H15.9459V66.9729Z" fill="black"/>
<path d="M25.5135 66.9729H22.3243V70.1621H25.5135V66.9729Z" fill="black"/>
<path d="M28.7027 66.9729H25.5135V70.1621H28.7027V66.9729Z" fill="black"/>
<path d="M31.8919 66.9729H28.7027V70.1621H31.8919V66.9729Z" fill="black"/>
<path d="M38.2703 66.9729H35.0811V70.1621H38.2703V66.9729Z" fill="black"/>
<path d="M41.4595 66.9729H38.2703V70.1621H41.4595V66.9729Z" fill="black"/>
<path d="M44.6487 66.9729H41.4595V70.1621H44.6487V66.9729Z" fill="black"/>
<path d="M47.8378 66.9729H44.6487V70.1621H47.8378V66.9729Z" fill="black"/>
<path d="M54.2162 66.9729H51.027V70.1621H54.2162V66.9729Z" fill="black"/>
<path d="M57.4054 66.9729H54.2162V70.1621H57.4054V66.9729Z" fill="black"/>
<path d="M60.5946 66.9729H57.4054V70.1621H60.5946V66.9729Z" fill="black"/>
<path d="M66.973 66.9729H63.7838V70.1621H66.973V66.9729Z" fill="black"/>
<path d="M76.5405 66.9729H73.3513V70.1621H76.5405V66.9729Z" fill="black"/>
<path d="M89.2973 66.9729H86.1081V70.1621H89.2973V66.9729Z" fill="black"/>
<path d="M95.6757 66.9729H92.4865V70.1621H95.6757V66.9729Z" fill="black"/>
<path d="M102.054 66.9729H98.8649V70.1621H102.054V66.9729Z" fill="black"/>
<path d="M15.9459 70.1621H12.7567V73.3513H15.9459V70.1621Z" fill="black"/>
<path d="M25.5135 70.1621H22.3243V73.3513H25.5135V70.1621Z" fill="black"/>
<path d="M28.7027 70.1621H25.5135V73.3513H28.7027V70.1621Z" fill="black"/>
<path d="M35.0811 70.1621H31.8919V73.3513H35.0811V70.1621Z" fill="black"/>
<path d="M41.4595 70.1621H38.2703V73.3513H41.4595V70.1621Z" fill="black"/>
<path d="M51.027 70.1621H47.8378V73.3513H51.027V70.1621Z" fill="black"/>
<path d="M57.4054 70.1621H54.2162V73.3513H57.4054V70.1621Z" fill="black"/>
<path d="M60.5946 70.1621H57.4054V73.3513H60.5946V70.1621Z" fill="black"/>
<path d="M63.7838 70.1621H60.5946V73.3513H63.7838V70.1621Z" fill="black"/>
<path d="M66.973 70.1621H63.7838V73.3513H66.973V70.1621Z" fill="black"/>
<path d="M70.1622 70.1621H66.973V73.3513H70.1622V70.1621Z" fill="black"/>
<path d="M95.6757 70.1621H92.4865V73.3513H95.6757V70.1621Z" fill="black"/>
<path d="M98.8648 70.1621H95.6757V73.3513H98.8648V70.1621Z" fill="black"/>
<path d="M15.9459 73.3513H12.7567V76.5405H15.9459V73.3513Z" fill="black"/>
<path d="M22.3243 73.3513H19.1351V76.5405H22.3243V73.3513Z" fill="black"/>
<path d="M28.7027 73.3513H25.5135V76.5405H28.7027V73.3513Z" fill="black"/>
<path d="M31.8919 73.3513H28.7027V76.5405H31.8919V73.3513Z" fill="black"/>
<path d="M38.2703 73.3513H35.0811V76.5405H38.2703V73.3513Z" fill="black"/>
<path d="M44.6487 73.3513H41.4595V76.5405H44.6487V73.3513Z" fill="black"/>
<path d="M47.8378 73.3513H44.6487V76.5405H47.8378V73.3513Z" fill="black"/>
<path d="M54.2162 73.3513H51.027V76.5405H54.2162V73.3513Z" fill="black"/>
<path d="M57.4054 73.3513H54.2162V76.5405H57.4054V73.3513Z" fill="black"/>
<path d="M66.973 73.3513H63.7838V76.5405H66.973V73.3513Z" fill="black"/>
<path d="M76.5405 73.3513H73.3513V76.5405H76.5405V73.3513Z" fill="black"/>
<path d="M79.7297 73.3513H76.5405V76.5405H79.7297V73.3513Z" fill="black"/>
<path d="M82.9189 73.3513H79.7297V76.5405H82.9189V73.3513Z" fill="black"/>
<path d="M86.1081 73.3513H82.9189V76.5405H86.1081V73.3513Z" fill="black"/>
<path d="M89.2973 73.3513H86.1081V76.5405H89.2973V73.3513Z" fill="black"/>
<path d="M92.4865 73.3513H89.2973V76.5405H92.4865V73.3513Z" fill="black"/>
<path d="M102.054 73.3513H98.8649V76.5405H102.054V73.3513Z" fill="black"/>
<path d="M105.243 73.3513H102.054V76.5405H105.243V73.3513Z" fill="black"/>
<path d="M15.9459 76.5405H12.7567V79.7297H15.9459V76.5405Z" fill="black"/>
<path d="M22.3243 76.5405H19.1351V79.7297H22.3243V76.5405Z" fill="black"/>
<path d="M25.5135 76.5405H22.3243V79.7297H25.5135V76.5405Z" fill="black"/>
<path d="M31.8919 76.5405H28.7027V79.7297H31.8919V76.5405Z" fill="black"/>
<path d="M35.0811 76.5405H31.8919V79.7297H35.0811V76.5405Z" fill="black"/>
<path d="M41.4595 76.5405H38.2703V79.7297H41.4595V76.5405Z" fill="black"/>
<path d="M47.8378 76.5405H44.6487V79.7297H47.8378V76.5405Z" fill="black"/>
<path d="M51.027 76.5405H47.8378V79.7297H51.027V76.5405Z" fill="black"/>
<path d="M60.5946 76.5405H57.4054V79.7297H60.5946V76.5405Z" fill="black"/>
<path d="M63.7838 76.5405H60.5946V79.7297H63.7838V76.5405Z" fill="black"/>
<path d="M66.973 76.5405H63.7838V79.7297H66.973V76.5405Z" fill="black"/>
<path d="M73.3514 76.5405H70.1622V79.7297H73.3514V76.5405Z" fill="black"/>
<path d="M79.7297 76.5405H76.5405V79.7297H79.7297V76.5405Z" fill="black"/>
<path d="M82.9189 76.5405H79.7297V79.7297H82.9189V76.5405Z" fill="black"/>
<path d="M86.1081 76.5405H82.9189V79.7297H86.1081V76.5405Z" fill="black"/>
<path d="M89.2973 76.5405H86.1081V79.7297H89.2973V76.5405Z" fill="black"/>
<path d="M92.4865 76.5405H89.2973V79.7297H92.4865V76.5405Z" fill="black"/>
<path d="M95.6757 76.5405H92.4865V79.7297H95.6757V76.5405Z" fill="black"/>
<path d="M98.8648 76.5405H95.6757V79.7297H98.8648V76.5405Z" fill="black"/>
<path d="M102.054 76.5405H98.8649V79.7297H102.054V76.5405Z" fill="black"/>
<path d="M41.4595 79.7297H38.2703V82.9189H41.4595V79.7297Z" fill="black"/>
<path d="M47.8378 79.7297H44.6487V82.9189H47.8378V79.7297Z" fill="black"/>
<path d="M51.027 79.7297H47.8378V82.9189H51.027V79.7297Z" fill="black"/>
<path d="M54.2162 79.7297H51.027V82.9189H54.2162V79.7297Z" fill="black"/>
<path d="M66.973 79.7297H63.7838V82.9189H66.973V79.7297Z" fill="black"/>
<path d="M73.3514 79.7297H70.1622V82.9189H73.3514V79.7297Z" fill="black"/>
<path d="M76.5405 79.7297H73.3513V82.9189H76.5405V79.7297Z" fill="black"/>
<path d="M79.7297 79.7297H76.5405V82.9189H79.7297V79.7297Z" fill="black"/>
<path d="M92.4865 79.7297H89.2973V82.9189H92.4865V79.7297Z" fill="black"/>
<path d="M102.054 79.7297H98.8649V82.9189H102.054V79.7297Z" fill="black"/>
<path d="M47.8378 82.9189H44.6487V86.1081H47.8378V82.9189Z" fill="black"/>
<path d="M51.027 82.9189H47.8378V86.1081H51.027V82.9189Z" fill="black"/>
<path d="M54.2162 82.9189H51.027V86.1081H54.2162V82.9189Z" fill="black"/>
<path d="M70.1622 82.9189H66.973V86.1081H70.1622V82.9189Z" fill="black"/>
<path d="M76.5405 82.9189H73.3513V86.1081H76.5405V82.9189Z" fill="black"/>
<path d="M79.7297 82.9189H76.5405V86.1081H79.7297V82.9189Z" fill="black"/>
<path d="M86.1081 82.9189H82.9189V86.1081H86.1081V82.9189Z" fill="black"/>
<path d="M92.4865 82.9189H89.2973V86.1081H92.4865V82.9189Z" fill="black"/>
<path d="M95.6757 82.9189H92.4865V86.1081H95.6757V82.9189Z" fill="black"/>
<path d="M98.8648 82.9189H95.6757V86.1081H98.8648V82.9189Z" fill="black"/>
<path d="M41.4595 86.1082H38.2703V89.2973H41.4595V86.1082Z" fill="black"/>
<path d="M44.6487 86.1082H41.4595V89.2973H44.6487V86.1082Z" fill="black"/>
<path d="M60.5946 86.1082H57.4054V89.2973H60.5946V86.1082Z" fill="black"/>
<path d="M66.973 86.1082H63.7838V89.2973H66.973V86.1082Z" fill="black"/>
<path d="M76.5405 86.1082H73.3513V89.2973H76.5405V86.1082Z" fill="black"/>
<path d="M79.7297 86.1082H76.5405V89.2973H79.7297V86.1082Z" fill="black"/>
<path d="M92.4865 86.1082H89.2973V89.2973H92.4865V86.1082Z" fill="black"/>
<path d="M98.8648 86.1082H95.6757V89.2973H98.8648V86.1082Z" fill="black"/>
<path d="M102.054 86.1082H98.8649V89.2973H102.054V86.1082Z" fill="black"/>
<path d="M105.243 86.1082H102.054V89.2973H105.243V86.1082Z" fill="black"/>
<path d="M41.4595 89.2974H38.2703V92.4866H41.4595V89.2974Z" fill="black"/>
<path d="M47.8378 89.2974H44.6487V92.4866H47.8378V89.2974Z" fill="black"/>
<path d="M51.027 89.2974H47.8378V92.4866H51.027V89.2974Z" fill="black"/>
<path d="M54.2162 89.2974H51.027V92.4866H54.2162V89.2974Z" fill="black"/>
<path d="M63.7838 89.2974H60.5946V92.4866H63.7838V89.2974Z" fill="black"/>
<path d="M73.3514 89.2974H70.1622V92.4866H73.3514V89.2974Z" fill="black"/>
<path d="M76.5405 89.2974H73.3513V92.4866H76.5405V89.2974Z" fill="black"/>
<path d="M79.7297 89.2974H76.5405V92.4866H79.7297V89.2974Z" fill="black"/>
<path d="M82.9189 89.2974H79.7297V92.4866H82.9189V89.2974Z" fill="black"/>
<path d="M86.1081 89.2974H82.9189V92.4866H86.1081V89.2974Z" fill="black"/>
<path d="M89.2973 89.2974H86.1081V92.4866H89.2973V89.2974Z" fill="black"/>
<path d="M92.4865 89.2974H89.2973V92.4866H92.4865V89.2974Z" fill="black"/>
<path d="M98.8648 89.2974H95.6757V92.4866H98.8648V89.2974Z" fill="black"/>
<path d="M102.054 89.2974H98.8649V92.4866H102.054V89.2974Z" fill="black"/>
<path d="M105.243 89.2974H102.054V92.4866H105.243V89.2974Z" fill="black"/>
<path d="M41.4595 92.4866H38.2703V95.6758H41.4595V92.4866Z" fill="black"/>
<path d="M57.4054 92.4866H54.2162V95.6758H57.4054V92.4866Z" fill="black"/>
<path d="M60.5946 92.4866H57.4054V95.6758H60.5946V92.4866Z" fill="black"/>
<path d="M63.7838 92.4866H60.5946V95.6758H63.7838V92.4866Z" fill="black"/>
<path d="M66.973 92.4866H63.7838V95.6758H66.973V92.4866Z" fill="black"/>
<path d="M73.3514 92.4866H70.1622V95.6758H73.3514V92.4866Z" fill="black"/>
<path d="M79.7297 92.4866H76.5405V95.6758H79.7297V92.4866Z" fill="black"/>
<path d="M86.1081 92.4866H82.9189V95.6758H86.1081V92.4866Z" fill="black"/>
<path d="M89.2973 92.4866H86.1081V95.6758H89.2973V92.4866Z" fill="black"/>
<path d="M41.4595 95.6758H38.2703V98.865H41.4595V95.6758Z" fill="black"/>
<path d="M44.6487 95.6758H41.4595V98.865H44.6487V95.6758Z" fill="black"/>
<path d="M51.027 95.6758H47.8378V98.865H51.027V95.6758Z" fill="black"/>
<path d="M57.4054 95.6758H54.2162V98.865H57.4054V95.6758Z" fill="black"/>
<path d="M60.5946 95.6758H57.4054V98.865H60.5946V95.6758Z" fill="black"/>
<path d="M63.7838 95.6758H60.5946V98.865H63.7838V95.6758Z" fill="black"/>
<path d="M70.1622 95.6758H66.973V98.865H70.1622V95.6758Z" fill="black"/>
<path d="M73.3514 95.6758H70.1622V98.865H73.3514V95.6758Z" fill="black"/>
<path d="M76.5405 95.6758H73.3513V98.865H76.5405V95.6758Z" fill="black"/>
<path d="M82.9189 95.6758H79.7297V98.865H82.9189V95.6758Z" fill="black"/>
<path d="M86.1081 95.6758H82.9189V98.865H86.1081V95.6758Z" fill="black"/>
<path d="M89.2973 95.6758H86.1081V98.865H89.2973V95.6758Z" fill="black"/>
<path d="M98.8648 95.6758H95.6757V98.865H98.8648V95.6758Z" fill="black"/>
<path d="M102.054 95.6758H98.8649V98.865H102.054V95.6758Z" fill="black"/>
<path d="M47.8378 98.8647H44.6487V102.054H47.8378V98.8647Z" fill="black"/>
<path d="M51.027 98.8647H47.8378V102.054H51.027V98.8647Z" fill="black"/>
<path d="M60.5946 98.8647H57.4054V102.054H60.5946V98.8647Z" fill="black"/>
<path d="M66.973 98.8647H63.7838V102.054H66.973V98.8647Z" fill="black"/>
<path d="M70.1622 98.8647H66.973V102.054H70.1622V98.8647Z" fill="black"/>
<path d="M73.3514 98.8647H70.1622V102.054H73.3514V98.8647Z" fill="black"/>
<path d="M76.5405 98.8647H73.3513V102.054H76.5405V98.8647Z" fill="black"/>
<path d="M79.7297 98.8647H76.5405V102.054H79.7297V98.8647Z" fill="black"/>
<path d="M95.6757 98.8647H92.4865V102.054H95.6757V98.8647Z" fill="black"/>
<path d="M98.8648 98.8647H95.6757V102.054H98.8648V98.8647Z" fill="black"/>
<path d="M105.243 98.8647H102.054V102.054H105.243V98.8647Z" fill="black"/>
<path d="M41.4595 102.054H38.2703V105.243H41.4595V102.054Z" fill="black"/>
<path d="M44.6487 102.054H41.4595V105.243H44.6487V102.054Z" fill="black"/>
<path d="M51.027 102.054H47.8378V105.243H51.027V102.054Z" fill="black"/>
<path d="M54.2162 102.054H51.027V105.243H54.2162V102.054Z" fill="black"/>
<path d="M57.4054 102.054H54.2162V105.243H57.4054V102.054Z" fill="black"/>
<path d="M63.7838 102.054H60.5946V105.243H63.7838V102.054Z" fill="black"/>
<path d="M66.973 102.054H63.7838V105.243H66.973V102.054Z" fill="black"/>
<path d="M76.5405 102.054H73.3513V105.243H76.5405V102.054Z" fill="black"/>
<path d="M82.9189 102.054H79.7297V105.243H82.9189V102.054Z" fill="black"/>
<path d="M86.1081 102.054H82.9189V105.243H86.1081V102.054Z" fill="black"/>
<path d="M92.4865 102.054H89.2973V105.243H92.4865V102.054Z" fill="black"/>
<path d="M95.6757 102.054H92.4865V105.243H95.6757V102.054Z" fill="black"/>
<path d="M98.8648 102.054H95.6757V105.243H98.8648V102.054Z" fill="black"/>
<path fill-rule="evenodd" clip-rule="evenodd" d="M12.7567 12.7568H35.0811V35.0812H12.7567V12.7568ZM15.9459 15.946H31.8919V31.892H15.9459V15.946Z" fill="black"/>
<path fill-rule="evenodd" clip-rule="evenodd" d="M82.9189 12.7568H105.243V35.0812H82.9189V12.7568ZM86.1081 15.946H102.054V31.892H86.1081V15.946Z" fill="black"/>
<path d="M28.7027 19.1353H19.1351V28.7028H28.7027V19.1353Z" fill="black"/>
<path d="M98.8649 19.1353H89.2973V28.7028H98.8649V19.1353Z" fill="black"/>
<path fill-rule="evenodd" clip-rule="evenodd" d="M12.7567 82.9189H35.0811V105.243H12.7567V82.9189ZM15.9459 86.1081H31.8919V102.054H15.9459V86.1081Z" fill="black"/>
<path d="M28.7027 89.2974H19.1351V98.8649H28.7027V89.2974Z" fill="black"/>
</g>
<defs>
<clipPath id="clip0_1_1124">
<rect width="118" height="118" fill="white"/>
</clipPath>
</defs>
</svg>
