<svg width="16" height="16" viewBox="0 0 16 16" fill="none" xmlns="http://www.w3.org/2000/svg">
<g clip-path="url(#clip0_1_1581)">
<path d="M15.5434 11.3062L12.0434 9.80621C11.8939 9.74249 11.7277 9.72906 11.5699 9.76795C11.4121 9.80684 11.2712 9.89594 11.1684 10.0218L9.61844 11.9156C7.18586 10.7686 5.22819 8.81098 4.08125 6.3784L5.975 4.8284C6.10115 4.7258 6.19044 4.58489 6.22934 4.42701C6.26825 4.26913 6.25466 4.10287 6.19063 3.9534L4.69063 0.453398C4.62035 0.292276 4.49605 0.160725 4.33917 0.0814291C4.18229 0.00213325 4.00266 -0.0199373 3.83125 0.0190233L0.58125 0.769023C0.41599 0.807185 0.268545 0.900235 0.16298 1.03299C0.0574141 1.16574 -3.80691e-05 1.33035 1.89256e-08 1.49996C1.89256e-08 9.51559 6.49687 16 14.5 16C14.6697 16.0001 14.8343 15.9426 14.9672 15.8371C15.1 15.7315 15.1931 15.584 15.2312 15.4187L15.9812 12.1687C16.02 11.9965 15.9974 11.8161 15.9175 11.6587C15.8376 11.5013 15.7053 11.3766 15.5434 11.3062Z" fill="white"/>
</g>
<defs>
<clipPath id="clip0_1_1581">
<rect width="16" height="16" fill="white"/>
</clipPath>
</defs>
</svg>
