<svg width="25" height="25" viewBox="0 0 25 25" fill="none" xmlns="http://www.w3.org/2000/svg">
<path fill-rule="evenodd" clip-rule="evenodd" d="M1.875 12.5C1.875 13.8953 2.14983 15.2769 2.68378 16.566C3.21774 17.8551 4.00036 19.0264 4.98699 20.013C5.97361 20.9996 7.1449 21.7823 8.43399 22.3162C9.72307 22.8501 11.1047 23.125 12.5 23.125C13.8953 23.125 15.2769 22.8501 16.566 22.3162C17.8551 21.7823 19.0264 20.9996 20.013 20.013C20.9996 19.0264 21.7823 17.8551 22.3162 16.566C22.8501 15.2769 23.125 13.8953 23.125 12.5C23.125 9.68208 22.0056 6.97956 20.013 4.98699C18.0204 2.99441 15.3179 1.875 12.5 1.875C9.68208 1.875 6.97956 2.99441 4.98699 4.98699C2.99441 6.97956 1.875 9.68208 1.875 12.5ZM21.875 12.5C21.875 14.9864 20.8872 17.371 19.1291 19.1291C17.371 20.8872 14.9864 21.875 12.5 21.875C10.0136 21.875 7.62902 20.8872 5.87088 19.1291C4.11273 17.371 3.125 14.9864 3.125 12.5C3.125 10.0136 4.11273 7.62902 5.87088 5.87088C7.62902 4.11273 10.0136 3.125 12.5 3.125C14.9864 3.125 17.371 4.11273 19.1291 5.87088C20.8872 7.62902 21.875 10.0136 21.875 12.5Z" fill="white"/>
<path fill-rule="evenodd" clip-rule="evenodd" d="M8.125 12.5C8.125 17.995 9.9275 22.5 12.5 22.5C15.0725 22.5 16.875 17.995 16.875 12.5C16.875 7.005 15.0725 2.5 12.5 2.5C9.9275 2.5 8.125 7.005 8.125 12.5ZM15.625 12.5C15.625 17.3612 14.0687 21.25 12.5 21.25C10.9313 21.25 9.375 17.3612 9.375 12.5C9.375 7.63875 10.9313 3.75 12.5 3.75C14.0687 3.75 15.625 7.63875 15.625 12.5Z" fill="white"/>
<path d="M4.66875 6.64039L5.50625 5.71289C5.64 5.83289 5.7825 5.95039 5.935 6.06414C7.5825 7.29914 10.1825 8.05164 13.0163 8.05164C15.4325 8.05164 17.6875 7.50539 19.335 6.56414C19.7146 6.34937 20.0733 6.09953 20.4062 5.81789L21.2188 6.76789C20.8463 7.08664 20.4237 7.38039 19.9562 7.64789C18.11 8.70414 15.6412 9.30164 13.0163 9.30164C9.92875 9.30164 7.06375 8.47289 5.185 7.06414C5.00649 6.93048 4.83421 6.78992 4.66875 6.64039ZM4.66875 18.3754L5.50625 19.3004C5.64 19.1804 5.7825 19.0629 5.935 18.9504C7.5825 17.7154 10.1825 16.9629 13.0163 16.9629C15.4325 16.9629 17.6875 17.5079 19.335 18.4504C19.7362 18.6804 20.095 18.9304 20.4062 19.1954L21.2188 18.2454C20.8264 17.9133 20.4036 17.6186 19.9562 17.3654C18.11 16.3104 15.6412 15.7129 13.0163 15.7129C9.92875 15.7129 7.06375 16.5416 5.185 17.9491C5.0025 18.0866 4.83 18.2291 4.66875 18.3754ZM2.5 13.1254V11.8754H22.5V13.1254H2.5Z" fill="white"/>
</svg>
