<svg width="24" height="24" viewBox="0 0 24 24" fill="none" xmlns="http://www.w3.org/2000/svg">
<g clip-path="url(#clip0_1_263)">
<mask id="mask0_1_263" style="mask-type:luminance" maskUnits="userSpaceOnUse" x="0" y="0" width="24" height="24">
<path d="M24 0H0V24H24V0Z" fill="white"/>
</mask>
<g mask="url(#mask0_1_263)">
<mask id="mask1_1_263" style="mask-type:luminance" maskUnits="userSpaceOnUse" x="0" y="0" width="24" height="24">
<path d="M24 0H0V24H24V0Z" fill="white"/>
</mask>
<g mask="url(#mask1_1_263)">
<path d="M21.0259 5.40952H2.76843V24H21.0259V5.40952Z" fill="#E6E5E5"/>
<path d="M21.0259 1.18515H2.76843V5.40949H21.0259V1.18515Z" fill="#EE3131"/>
<path d="M2.76828 5.40952H0V24H2.76828V5.40952Z" fill="#CCCCCC"/>
<path d="M2.76828 1.18515H0V5.40949H2.76828V1.18515Z" fill="#D65A38"/>
<path d="M21.0256 5.40952V20.4868H5.74241C4.10287 20.4868 2.7764 19.1238 2.7764 17.4307V5.40952H21.0256Z" fill="#EFEFEF"/>
<path d="M8.70866 17.4307C8.70866 19.1153 7.38219 20.4868 5.74265 20.4868H21.0258C22.6654 20.4868 23.9918 19.1238 23.9918 17.4391H8.70866V17.4307Z" fill="#CCCCCC"/>
<path d="M18.8427 2.37036V1.82856C19.1887 1.82856 19.4605 1.54073 19.4605 1.19364C19.4605 0.846548 19.1805 0.558718 18.8427 0.558718C18.5049 0.558718 18.2247 0.846548 18.2247 1.19364H17.6892C17.6892 0.541787 18.2083 0.00845337 18.8427 0.00845337C19.477 0.00845337 19.9961 0.541787 19.9961 1.19364C19.9961 1.84549 19.477 2.37883 18.8427 2.37883V2.37036Z" fill="#3F4A5A"/>
<path d="M16.0663 2.37036V1.82856C16.4123 1.82856 16.6842 1.54073 16.6842 1.19364C16.6842 0.846548 16.4041 0.558718 16.0663 0.558718C15.7285 0.558718 15.4483 0.846548 15.4483 1.19364H14.9128C14.9128 0.541787 15.4319 0.00845337 16.0663 0.00845337C16.7007 0.00845337 17.2197 0.541787 17.2197 1.19364C17.2197 1.84549 16.7007 2.37883 16.0663 2.37883V2.37036Z" fill="#3F4A5A"/>
<path d="M13.2894 2.37036V1.82856C13.6354 1.82856 13.9073 1.54073 13.9073 1.19364C13.9073 0.846548 13.6272 0.558718 13.2894 0.558718C12.9515 0.558718 12.6714 0.846548 12.6714 1.19364H12.1359C12.1359 0.541787 12.655 0.00845337 13.2894 0.00845337C13.9237 0.00845337 14.4428 0.541787 14.4428 1.19364C14.4428 1.84549 13.9237 2.37883 13.2894 2.37883V2.37036Z" fill="#3F4A5A"/>
<path d="M10.5132 2.37036V1.82856C10.851 1.82856 11.1311 1.54073 11.1311 1.19364C11.1311 0.846548 10.851 0.558718 10.5132 0.558718C10.1754 0.558718 9.89531 0.846548 9.89531 1.19364H9.36798C9.36798 0.541787 9.88705 0.00845337 10.5214 0.00845337C11.1558 0.00845337 11.6749 0.541787 11.6749 1.19364C11.6749 1.84549 11.1558 2.37883 10.5214 2.37883L10.5132 2.37036Z" fill="#3F4A5A"/>
<path d="M7.73631 2.37036V1.82856C8.08234 1.82856 8.35423 1.54073 8.35423 1.19364C8.35423 0.846548 8.0741 0.558718 7.73631 0.558718C7.39851 0.558718 7.11838 0.846548 7.11838 1.19364H6.59109C6.59109 0.541787 7.11015 0.00845337 7.74454 0.00845337C8.37894 0.00845337 8.89799 0.541787 8.89799 1.19364C8.89799 1.84549 8.37894 2.37883 7.74454 2.37883L7.73631 2.37036Z" fill="#3F4A5A"/>
<path d="M4.95173 2.37036V1.82856C5.28952 1.82856 5.56965 1.54073 5.56965 1.19364C5.56965 0.846548 5.28952 0.558718 4.95173 0.558718C4.61393 0.558718 4.33381 0.846548 4.33381 1.19364H3.79828C3.79828 0.541787 4.31733 0.00845337 4.95173 0.00845337C5.58613 0.00845337 6.10518 0.541787 6.10518 1.19364C6.10518 1.84549 5.58613 2.37883 4.95173 2.37883V2.37036Z" fill="#3F4A5A"/>
<path d="M10.9494 8.33862H4.95142V14.5016H10.9494V8.33862Z" fill="#EE3131"/>
<path d="M13.1326 10.5904H10.9411V8.33862H13.1326V10.5904ZM11.2295 10.2942H12.8443V8.63492H11.2295V10.2942Z" fill="#3F4A5A"/>
<path d="M15.0358 10.5904H12.8442V8.33862H15.0358V10.5904ZM13.1326 10.2942H14.7474V8.63492H13.1326V10.2942Z" fill="#3F4A5A"/>
<path d="M16.9389 10.5904H14.7473V8.33862H16.9389V10.5904ZM15.0357 10.2942H16.6505V8.63492H15.0357V10.2942Z" fill="#3F4A5A"/>
<path d="M18.842 10.5904H16.6504V8.33862H18.842V10.5904ZM16.9388 10.2942H18.5536V8.63492H16.9388V10.2942Z" fill="#3F4A5A"/>
<path d="M13.1326 12.546H10.9411V10.2942H13.1326V12.546ZM11.2295 12.2498H12.8443V10.5905H11.2295V12.2498Z" fill="#3F4A5A"/>
<path d="M15.0358 12.546H12.8442V10.2942H15.0358V12.546ZM13.1326 12.2498H14.7474V10.5905H13.1326V12.2498Z" fill="#3F4A5A"/>
<path d="M16.9389 12.546H14.7473V10.2942H16.9389V12.546ZM15.0357 12.2498H16.6505V10.5905H15.0357V12.2498Z" fill="#3F4A5A"/>
<path d="M18.842 12.546H16.6504V10.2942H18.842V12.546ZM16.9388 12.2498H18.5536V10.5905H16.9388V12.2498Z" fill="#3F4A5A"/>
<path d="M13.1326 14.5016H10.9411V12.2497H13.1326V14.5016ZM11.2295 14.2053H12.8443V12.546H11.2295V14.2053Z" fill="#3F4A5A"/>
<path d="M15.0358 14.5016H12.8442V12.2497H15.0358V14.5016ZM13.1326 14.2053H14.7474V12.546H13.1326V14.2053Z" fill="#3F4A5A"/>
<path d="M16.9389 14.5016H14.7473V12.2497H16.9389V14.5016ZM15.0357 14.2053H16.6505V12.546H15.0357V14.2053Z" fill="#3F4A5A"/>
<path d="M18.842 14.5016H16.6504V12.2497H18.842V14.5016ZM16.9388 14.2053H18.5536V12.546H16.9388V14.2053Z" fill="#3F4A5A"/>
</g>
</g>
</g>
<defs>
<clipPath id="clip0_1_263">
<rect width="24" height="24" fill="white"/>
</clipPath>
</defs>
</svg>
