<svg width="25" height="21" viewBox="0 0 25 21" fill="none" xmlns="http://www.w3.org/2000/svg">
<path d="M23.4375 0.9375H1.5625C1.1481 0.9375 0.750671 1.11529 0.457646 1.43176C0.16462 1.74822 0 2.17745 0 2.625L0 18.375C0 18.8226 0.16462 19.2518 0.457646 19.5682C0.750671 19.8847 1.1481 20.0625 1.5625 20.0625H23.4375C23.8519 20.0625 24.2493 19.8847 24.5424 19.5682C24.8354 19.2518 25 18.8226 25 18.375V2.625C25 2.17745 24.8354 1.74822 24.5424 1.43176C24.2493 1.11529 23.8519 0.9375 23.4375 0.9375ZM23.1042 2.0625L12.5 10.9162L1.89583 2.0625H23.1042ZM1.04167 18.1444V2.77125L9.06771 9.47062L1.04167 18.1444ZM1.77604 18.9375L9.89583 10.1681L12.1771 12.075C12.2682 12.1507 12.3799 12.1918 12.4948 12.1918C12.6097 12.1918 12.7214 12.1507 12.8125 12.075L15.1042 10.1681L23.224 18.9375H1.77604ZM23.9583 18.1444L15.9323 9.47062L23.9583 2.77125V18.1444Z" fill="white"/>
</svg>
