<svg preserveAspectRatio="none" width="100%" height="100%" overflow="visible" style="display: block;" viewBox="0 0 27 25" fill="none" xmlns="http://www.w3.org/2000/svg">
<g id="youtube.svg" clip-path="url(#clip0_0_357)">
<path id="Vector" d="M26.4358 3.91158C26.1253 2.37195 25.2104 1.15927 24.0487 0.747673C21.9431 2.98023e-07 13.5 0 13.5 0C13.5 0 5.05689 2.98023e-07 2.95123 0.74775C1.78958 1.15935 0.874686 2.37195 0.564185 3.91166C-5.96046e-08 6.70239 0 12.5252 0 12.5252C0 12.5252 -5.96046e-08 18.3482 0.564185 21.1388C0.874686 22.6785 1.78958 23.8407 2.95123 24.2523C5.05689 25 13.5 25 13.5 25C13.5 25 21.9431 25 24.0487 24.2522C25.2104 23.8406 26.1253 22.6784 26.4358 21.1387C27 18.3481 27 12.5252 27 12.5252C27 12.5252 27 6.70239 26.4358 3.91158Z" fill="var(--fill-0, #FF0000)"/>
<path id="Vector_2" d="M11 18.459V7.45898L20 12.9591L11 18.459Z" fill="var(--fill-0, white)"/>
</g>
<defs>
<clipPath id="clip0_0_357">
<rect width="27" height="25" fill="white"/>
</clipPath>
</defs>
</svg>
