<svg width="25" height="25" viewBox="0 0 25 25" fill="none" xmlns="http://www.w3.org/2000/svg">
<path d="M14.0251 22.1118L12.2228 18.8756L10.3554 20.341L11.7961 22.9277L14.0251 22.1118ZM18.1017 2.80064C19.3679 2.80064 20.3946 3.82702 20.3946 5.09317C20.3946 5.51542 20.2803 5.9108 20.0813 6.25066C20.8741 6.86366 21.3383 7.80442 21.3383 8.80925C21.3383 9.14704 21.0643 9.42077 20.7265 9.42077H15.477C15.1392 9.42077 14.8655 9.14704 14.8655 8.80925C14.8655 7.80412 15.3297 6.86366 16.1225 6.25066C15.9235 5.9108 15.8092 5.51542 15.8092 5.09317C15.8092 3.82732 16.8359 2.80064 18.1017 2.80064ZM19.1884 7.11228C18.865 7.28679 18.495 7.38571 18.1017 7.38571C17.7087 7.38571 17.3387 7.28679 17.0154 7.11228C16.6215 7.36593 16.3245 7.75127 16.1827 8.19773H20.0207C19.8793 7.75156 19.5823 7.36593 19.1884 7.11228ZM18.1017 4.02397C17.5112 4.02397 17.0325 4.50262 17.0325 5.09317C17.0325 5.68402 17.5112 6.16267 18.1017 6.16267C18.6926 6.16267 19.1712 5.68402 19.1712 5.09317C19.1712 4.50262 18.6926 4.02397 18.1017 4.02397ZM20.4858 12.0576L16.99 16.6022C16.633 17.0643 15.8981 16.8039 15.8975 16.2293L15.8957 12.0576H12.0919C11.7541 12.0576 11.4804 11.7839 11.4804 11.4461V1.0207C11.4804 0.682902 11.7541 0.40918 12.0919 0.40918H24.1118C24.4493 0.40918 24.7233 0.682902 24.7233 1.0207V11.4461C24.7233 11.7839 24.4493 12.0576 24.1118 12.0576H20.4858ZM17.1191 14.4343L19.6747 11.1118C19.7839 10.9447 19.9726 10.8346 20.187 10.8346H23.5V1.63222H12.7035V10.8346H16.5072C16.845 10.8346 17.1191 11.1083 17.1191 11.4461V14.4343ZM6.49554 6.08737L8.97411 10.5378C9.15747 10.8673 9.00039 11.279 8.6493 11.4071L5.41748 12.5903C4.33795 13.9527 4.47466 15.8059 5.28313 17.258C6.09131 18.7084 7.59575 19.7998 9.31988 19.6008L12.0305 17.4751C12.3243 17.2442 12.7572 17.3292 12.94 17.6581L15.4268 22.123C15.6247 22.4508 15.4764 22.8807 15.1129 23.0127L11.7246 24.2529C11.7048 24.26 11.6845 24.2662 11.6641 24.2712C7.5048 25.5677 3.71107 22.7254 1.76992 19.2302C-0.104508 15.8558 -0.64841 10.7634 2.72839 8.09733L5.56601 5.86887C5.87576 5.62526 6.32842 5.73599 6.49554 6.08737ZM4.32318 12.0163L2.96107 9.57047C0.717546 12.0862 1.32139 15.9119 2.83528 18.6379C4.35566 21.3748 7.26504 23.8749 10.597 23.2808L9.23395 20.8333C7.09407 20.9806 5.22733 19.6631 4.21777 17.8504C3.20851 16.0382 3.0718 13.7572 4.32318 12.0163ZM7.5615 10.5065L5.75912 7.27026L3.89178 8.73602L5.33244 11.3227L7.5615 10.5065Z" fill="white"/>
</svg>
